<?xml version="1.0" standalone="yes"?>
<svg xmlns="http://www.w3.org/2000/svg" width="344" height="344">
<path style="fill:#010202; stroke:none;" d="M0 0L0 344L344 344L344 0L0 0z"/>
<path style="fill:#5e3807; stroke:none;" d="M46 21L47 22L46 21z"/>
<path style="fill:#326f9f; stroke:none;" d="M47 21L47 22L69 22L47 21z"/>
<path style="fill:#5e3807; stroke:none;" d="M69 21L70 22L69 21M81.6034 22.0278C78.6449 24.3709 79.4315 31.5787 83.1481 32.6821C93.9411 35.8864 109.727 33 121 33C124.328 33 130.615 34.175 133.397 31.9722C136.355 29.6291 135.569 22.4213 131.852 21.3179C121.059 18.1136 105.273 21 94 21C90.6719 21 84.3847 19.825 81.6034 22.0278M145 21L146 22L145 21z"/>
<path style="fill:#326f9f; stroke:none;" d="M146 21L146 22L168 22L146 21z"/>
<path style="fill:#5e3807; stroke:none;" d="M168 21L169 22L168 21M42 22L43 23L42 22z"/>
<path style="fill:#326f9f; stroke:none;" d="M43 22L44 23L43 22z"/>
<path style="fill:#449de2; stroke:none;" d="M33 254C62.5386 237.555 90.2017 213.798 114 190L114 189C95.8255 173.525 102 144.559 102 123L113 123C113 136.953 108.28 161.563 115.14 173.996C116.577 176.601 119.595 180.315 122.999 179.539C126.488 178.743 129.084 174.508 131.285 172C137.057 165.423 146.51 157.429 149.411 149C151.312 143.477 150 135.79 150 130C150 101.762 140.937 53.8477 182 53C182 46.5302 183.396 38.1772 181.297 32.0008C176.532 17.9799 156.41 22 145 22C145 28.2722 146.394 36.0091 140.891 40.4275C136.487 43.9637 130.276 43 125 43L89 43C83.5223 43 77.51 43.818 73.2284 39.6559C68.6653 35.2202 70 27.7892 70 22C59.2455 22 41.9378 18.4427 35.1481 29.0401C31.7321 34.3719 33 41.955 33 48L33 91L33 254z"/>
<path style="fill:#ff9911; stroke:none;" d="M81 22L81 32L134 32L134 22L81 22z"/>
<path style="fill:#326f9f; stroke:none;" d="M171 22L172 23L171 22z"/>
<path style="fill:#5e3807; stroke:none;" d="M172 22L173 23L172 22z"/>
<path style="fill:#326f9f; stroke:none;" d="M40 23L41 24L40 23M174 23L175 24L174 23M39 24L40 25L39 24M175 24L176 25L175 24M35 28L36 29L35 28M179 28L180 29L179 28M34 29L35 30L34 29M180 29L181 30L180 29M33 31L34 32L33 31M181 31L182 32L181 31M32 34L32 200L32 247C32 254.213 30.5974 263.252 33.6528 269.999C38.0039 279.607 48.9176 279.999 58 280L123 280C128.38 280 146.448 282.846 149.972 278.397C152.779 274.852 151 265.32 151 261L151 213C151 208.487 152.895 198.294 149.972 194.603C146.189 189.827 129.714 193.673 124 192.671C121.089 192.161 117.972 189.959 115 190.238C108.052 190.888 98.226 204.156 93 208.715C73.9631 225.322 52.9335 238.678 33 254L33 99L33 55L32 34M182 34L182 53L175 53L175 54L183 54L182 34M70.3333 35.6667L70.6667 36.3333L70.3333 35.6667M144.333 35.6667L144.667 36.3333L144.333 35.6667M71 38L72 39L71 38M143 38L144 39L143 38M72 39L73 40L72 39M142 39L143 40L142 39M73 40L74 41L73 40M141 40L142 41L141 40z"/>
<path style="fill:#5e3807; stroke:none;" d="M75 41L76 42L75 41M139 41L140 42L139 41z"/>
<path style="fill:#326f9f; stroke:none;" d="M76.6667 42.3333L77.3333 42.6667L76.6667 42.3333M137.667 42.3333L138.333 42.6667L137.667 42.3333M170.667 54.3333L171.333 54.6667L170.667 54.3333M167 55L168 56L167 55M165 56L166 57L165 56M163 57L164 58L163 57M160 59L161 60L160 59M159 60L160 61L159 60M158 61L159 62L158 61M157 62L158 63L157 62M156 63L157 64L156 63M155 64L156 65L155 64z"/>
<path style="fill:#5e3807; stroke:none;" d="M175 64L176 65L175 64z"/>
<path style="fill:#326f9f; stroke:none;" d="M176 64L176 65L199 65L176 64z"/>
<path style="fill:#5e3807; stroke:none;" d="M210.603 65.0278C207.645 67.3709 208.431 74.5786 212.148 75.6821C222.941 78.8864 238.727 76 250 76C253.328 76 259.615 77.1751 262.397 74.9722C265.355 72.6291 264.569 65.4213 260.852 64.3179C250.059 61.1136 234.273 64 223 64C219.672 64 213.385 62.8249 210.603 65.0278z"/>
<path style="fill:#326f9f; stroke:none;" d="M274 64L274 65L297 65L274 64z"/>
<path style="fill:#5e3807; stroke:none;" d="M297 64L298 65L297 64M171 65L172 66L171 65z"/>
<path style="fill:#326f9f; stroke:none;" d="M172 65L173 66L172 65z"/>
<path style="fill:#449de2; stroke:none;" d="M162 182L222 182C214.7 171.636 204.438 169.277 213 157L214 157L233.999 178L241.248 188L234 198L214 219L213 219C204.438 206.723 214.7 204.364 222 194L162 194L162 280C162 289.68 158.774 306.572 164.148 314.96C170.374 324.678 184.136 322 194 322L277 322C287.229 322 302.388 325.048 308.852 314.96C312.131 309.842 311 302.8 311 297L311 258L311 127L311 90C311 84.633 312.048 77.9437 309.543 73.0038C303.557 61.1986 284.876 65 274 65C274 70.8332 275.269 78.1361 270.656 82.6057C266.437 86.694 260.395 86 255 86L219 86C213.749 86 207.587 86.8511 203.189 83.3472C197.669 78.9491 199 71.2543 199 65C189.457 65 173.634 61.9152 166.214 69.2245C159.098 76.2341 162 90.8775 162 100L162 182z"/>
<path style="fill:#ff9911; stroke:none;" d="M210 65L210 75L263 75L263 65L210 65z"/>
<path style="fill:#326f9f; stroke:none;" d="M300 65L301 66L300 65z"/>
<path style="fill:#5e3807; stroke:none;" d="M301 65L302 66L301 65z"/>
<path style="fill:#326f9f; stroke:none;" d="M154 66L155 67L154 66M169 66L170 67L169 66M303 66L304 67L303 66M153 68L154 69L153 68z"/>
<path style="fill:#5e3807; stroke:none;" d="M165 69L166 70L165 69M307 69L308 70L307 69z"/>
<path style="fill:#326f9f; stroke:none;" d="M152 70L153 71L152 70M151.333 72.6667L151.667 73.3333L151.333 72.6667M163 72L164 73L163 72M309 72L310 73L309 72M162 74L163 75L162 74M310 74L311 75L310 74M150 76L150 127L149.012 149L123 182C128.192 182.964 146.313 186.017 149.972 181.397C153.684 176.709 151 161.846 151 156L151 101C151 93.5202 152.903 82.9187 150 76M161 77L161 183L223 183L223 182L162 182L162 109L161 77M311 77L311 310L312 310L312 146L312 99L311 77M199.333 78.6667L199.667 79.3333L199.333 78.6667M273.333 78.6667L273.667 79.3333L273.333 78.6667z"/>
<path style="fill:#5e3807; stroke:none;" d="M200 80L201 81L200 80M272 80L273 81L272 80z"/>
<path style="fill:#326f9f; stroke:none;" d="M201 82L202 83L201 82M271 82L272 83L271 82M202 83L203 84L202 83M270 83L271 84L270 83z"/>
<path style="fill:#5e3807; stroke:none;" d="M204 84L205 85L204 84M268 84L269 85L268 84z"/>
<path style="fill:#326f9f; stroke:none;" d="M206 85L207 86L206 85M266 85L267 86L266 85M80 102L80 113L81 113L80 102z"/>
<path style="fill:#010202; stroke:none;" d="M81 102L81 113L91 113L91 102L81 102z"/>
<path style="fill:#326f9f; stroke:none;" d="M91 102L91 113L92 113L91 102z"/>
<path style="fill:#010202; stroke:none;" d="M102 102L102 113L113 113L113 102L102 102z"/>
<path style="fill:#326f9f; stroke:none;" d="M123 102L123 113L124 113L123 102z"/>
<path style="fill:#010202; stroke:none;" d="M124 102L124 113L134 113L134 102L124 102z"/>
<path style="fill:#326f9f; stroke:none;" d="M134 102L134 113L135 113L134 102M102 123L102 124L113 124L102 123M213 157L214 158L213 157M212 158L213 159L212 158M214 158L215 159L214 158M211 159L212 160L211 159M215 159L216 160L215 159M210 160L211 161L210 160M216 160L217 161L216 160M209 161L210 162L209 161M217 161L218 162L217 161M208 162L209 163L208 162M218 162L219 163L218 162M207 163L208 164L207 163M219 163L220 164L219 163M206 164L207 165L206 164M220 164L221 165L220 164z"/>
<path style="fill:#5e3807; stroke:none;" d="M206 165L207 166L206 165z"/>
<path style="fill:#326f9f; stroke:none;" d="M221 165L222 166L221 165z"/>
<path style="fill:#5e3807; stroke:none;" d="M207 166L208 167L207 166z"/>
<path style="fill:#326f9f; stroke:none;" d="M222 166L223 167L222 166z"/>
<path style="fill:#5e3807; stroke:none;" d="M208 167L209 168L208 167z"/>
<path style="fill:#326f9f; stroke:none;" d="M223 167L224 168L223 167z"/>
<path style="fill:#5e3807; stroke:none;" d="M209 168L210 169L209 168z"/>
<path style="fill:#326f9f; stroke:none;" d="M224 168L225 169L224 168M113.333 169.667L113.667 170.333L113.333 169.667z"/>
<path style="fill:#5e3807; stroke:none;" d="M210 169L211 170L210 169z"/>
<path style="fill:#326f9f; stroke:none;" d="M225 169L226 170L225 169M102 170L102 173L103 173L102 170z"/>
<path style="fill:#5e3807; stroke:none;" d="M211 170L212 171L211 170z"/>
<path style="fill:#326f9f; stroke:none;" d="M226 170L227 171L226 170z"/>
<path style="fill:#5e3807; stroke:none;" d="M113 171L114 172L113 171M212 171L213 172L212 171z"/>
<path style="fill:#326f9f; stroke:none;" d="M227 171L228 172L227 171z"/>
<path style="fill:#5e3807; stroke:none;" d="M213 172L214 173L213 172z"/>
<path style="fill:#326f9f; stroke:none;" d="M228 172L229 173L228 172M114 173L115 174L114 173z"/>
<path style="fill:#5e3807; stroke:none;" d="M214 173L215 174L214 173z"/>
<path style="fill:#326f9f; stroke:none;" d="M229 173L230 174L229 173z"/>
<path style="fill:#5e3807; stroke:none;" d="M215 174L216 175L215 174z"/>
<path style="fill:#326f9f; stroke:none;" d="M230 174L231 175L230 174M103 175L104 176L103 175M115 175L116 176L115 175z"/>
<path style="fill:#5e3807; stroke:none;" d="M216 175L217 176L216 175z"/>
<path style="fill:#326f9f; stroke:none;" d="M231 175L232 176L231 175M116 176L117 177L116 176z"/>
<path style="fill:#5e3807; stroke:none;" d="M217 176L218 177L217 176z"/>
<path style="fill:#326f9f; stroke:none;" d="M232 176L233 177L232 176M104 177L105 178L104 177M117 177L118 178L117 177z"/>
<path style="fill:#5e3807; stroke:none;" d="M218 177L219 178L218 177z"/>
<path style="fill:#326f9f; stroke:none;" d="M233 177L234 178L233 177M118 178L119 179L118 178z"/>
<path style="fill:#5e3807; stroke:none;" d="M219 178L220 179L219 178z"/>
<path style="fill:#326f9f; stroke:none;" d="M234 178L235 179L234 178M105 179L106 180L105 179M119 179L120 180L119 179z"/>
<path style="fill:#5e3807; stroke:none;" d="M220 179L221 180L220 179z"/>
<path style="fill:#326f9f; stroke:none;" d="M235 179L236 180L235 179M121 180L122 181L121 180z"/>
<path style="fill:#5e3807; stroke:none;" d="M221 180L222 181L221 180z"/>
<path style="fill:#326f9f; stroke:none;" d="M236 180L237 181L236 180M106 181L107 182L106 181z"/>
<path style="fill:#5e3807; stroke:none;" d="M222 181L223 182L222 181z"/>
<path style="fill:#326f9f; stroke:none;" d="M237 181L238 182L237 181z"/>
<path style="fill:#5e3807; stroke:none;" d="M107 182L108 183L107 182z"/>
<path style="fill:#326f9f; stroke:none;" d="M238 182L239 183L238 182M239 183L240 184L239 183M240 184L241 185L240 184M109 185L110 186L109 185M110 186L111 187L110 186M241 186L242 187L241 186M113 188L114 189L113 188z"/>
<path style="fill:#5e3807; stroke:none;" d="M241 189L242 190L241 189z"/>
<path style="fill:#326f9f; stroke:none;" d="M241 190L242 191L241 190z"/>
<path style="fill:#5e3807; stroke:none;" d="M240 191L241 192L240 191M239 192L240 193L239 192M161 193L162 194L161 193z"/>
<path style="fill:#326f9f; stroke:none;" d="M162 193L162 194C181.226 194 204.29 190.546 223 195L207 193L162 193z"/>
<path style="fill:#5e3807; stroke:none;" d="M238 193L239 194L238 193z"/>
<path style="fill:#326f9f; stroke:none;" d="M161 194L161 310L162 310L162 229L161 194z"/>
<path style="fill:#5e3807; stroke:none;" d="M237 194L238 195L237 194z"/>
<path style="fill:#326f9f; stroke:none;" d="M221 195L222 196L221 195z"/>
<path style="fill:#5e3807; stroke:none;" d="M236 195L237 196L236 195z"/>
<path style="fill:#326f9f; stroke:none;" d="M220 196L221 197L220 196z"/>
<path style="fill:#5e3807; stroke:none;" d="M235 196L236 197L235 196z"/>
<path style="fill:#326f9f; stroke:none;" d="M219 197L220 198L219 197z"/>
<path style="fill:#5e3807; stroke:none;" d="M234 197L235 198L234 197z"/>
<path style="fill:#326f9f; stroke:none;" d="M218 198L219 199L218 198z"/>
<path style="fill:#5e3807; stroke:none;" d="M233 198L234 199L233 198z"/>
<path style="fill:#326f9f; stroke:none;" d="M217 199L218 200L217 199z"/>
<path style="fill:#5e3807; stroke:none;" d="M232 199L233 200L232 199z"/>
<path style="fill:#326f9f; stroke:none;" d="M216 200L217 201L216 200z"/>
<path style="fill:#5e3807; stroke:none;" d="M231 200L232 201L231 200z"/>
<path style="fill:#326f9f; stroke:none;" d="M215 201L216 202L215 201z"/>
<path style="fill:#5e3807; stroke:none;" d="M230 201L231 202L230 201z"/>
<path style="fill:#326f9f; stroke:none;" d="M214 202L215 203L214 202z"/>
<path style="fill:#5e3807; stroke:none;" d="M229 202L230 203L229 202z"/>
<path style="fill:#326f9f; stroke:none;" d="M213 203L214 204L213 203z"/>
<path style="fill:#5e3807; stroke:none;" d="M228 203L229 204L228 203z"/>
<path style="fill:#326f9f; stroke:none;" d="M212 204L213 205L212 204z"/>
<path style="fill:#5e3807; stroke:none;" d="M227 204L228 205L227 204z"/>
<path style="fill:#326f9f; stroke:none;" d="M211 205L212 206L211 205z"/>
<path style="fill:#5e3807; stroke:none;" d="M226 205L227 206L226 205z"/>
<path style="fill:#326f9f; stroke:none;" d="M210 206L211 207L210 206z"/>
<path style="fill:#5e3807; stroke:none;" d="M225 206L226 207L225 206z"/>
<path style="fill:#326f9f; stroke:none;" d="M209 207L210 208L209 207z"/>
<path style="fill:#5e3807; stroke:none;" d="M224 207L225 208L224 207z"/>
<path style="fill:#326f9f; stroke:none;" d="M208 208L209 209L208 208z"/>
<path style="fill:#5e3807; stroke:none;" d="M223 208L224 209L223 208z"/>
<path style="fill:#326f9f; stroke:none;" d="M207 209L208 210L207 209z"/>
<path style="fill:#5e3807; stroke:none;" d="M222 209L223 210L222 209z"/>
<path style="fill:#326f9f; stroke:none;" d="M206 210L207 211L206 210z"/>
<path style="fill:#5e3807; stroke:none;" d="M221 210L222 211L221 210M220 211L221 212L220 211M219 212L220 213L219 212M218 213L219 214L218 213M217 214L218 215L217 214M216 215L217 216L216 215M215 216L216 217L215 216M214 217L215 218L214 217z"/>
<path style="fill:#326f9f; stroke:none;" d="M213 218L214 219L213 218z"/>
<path style="fill:#5e3807; stroke:none;" d="M32 266L33 267L32 266M47 279L48 280L47 279z"/>
<path style="fill:#326f9f; stroke:none;" d="M162 312L163 313L162 312M310 312L311 313L310 312M163 314L164 315L163 314M309 314L310 315L309 314M164 315L165 316L164 315M308 315L309 316L308 315M168 319L169 320L168 319M304 319L305 320L304 319z"/>
<path style="fill:#5e3807; stroke:none;" d="M169 320L170 321L169 320z"/>
<path style="fill:#326f9f; stroke:none;" d="M303 320L304 321L303 320z"/>
<path style="fill:#5e3807; stroke:none;" d="M171 321L172 322L171 321z"/>
<path style="fill:#326f9f; stroke:none;" d="M172 321L173 322L172 321M300 321L301 322L300 321z"/>
<path style="fill:#5e3807; stroke:none;" d="M301 321L302 322L301 321M175 322L176 323L175 322z"/>
<path style="fill:#326f9f; stroke:none;" d="M176 322L176 323L297 323C287.211 318.892 270.634 322 260 322L176 322z"/>
<path style="fill:#5e3807; stroke:none;" d="M297 322L298 323L297 322z"/>
</svg>
