<?xml version="1.0" standalone="yes"?>
<svg xmlns="http://www.w3.org/2000/svg" width="150" height="150">
<path style="fill:#fbfcfd; stroke:none;" d="M0 0L0 150L150 150L150 0L0 0z"/>
<path style="fill:#9ea7d0; stroke:none;" d="M72.6667 7.33333L73.3333 7.66667L72.6667 7.33333z"/>
<path style="fill:#5b67ab; stroke:none;" d="M74.6667 7.33333L75.3333 7.66667L74.6667 7.33333z"/>
<path style="fill:#9ea7d0; stroke:none;" d="M76.6667 7.33333L77.3333 7.66667L76.6667 7.33333M70 8L71 9L70 8z"/>
<path style="fill:#0b1d87; stroke:none;" d="M71.108 9.02855C62.0457 14.0491 67.9824 34.1266 77.8117 28.6667C87.6072 23.2256 82.4173 2.76317 71.108 9.02855z"/>
<path style="fill:#5b67ab; stroke:none;" d="M78 8L79 9L78 8z"/>
<path style="fill:#9ea7d0; stroke:none;" d="M79 8L80 9L79 8M68 9L69 10L68 9z"/>
<path style="fill:#5b67ab; stroke:none;" d="M69 9L70 10L69 9z"/>
<path style="fill:#9ea7d0; stroke:none;" d="M80 9L81 10L80 9z"/>
<path style="fill:#5b67ab; stroke:none;" d="M68 10L69 11L68 10z"/>
<path style="fill:#091d9b; stroke:none;" d="M72 27L79 27L73 13L78 14C77.4002 17.8958 77.4105 20.002 81 22L82 21L82 16C79.3778 14.4267 80.9892 11.6305 78 10C76.3447 9.09712 74.1778 10.5092 73 11C63.9101 14.7874 72.8216 23.7137 72 27z"/>
<path style="fill:#9ea7d0; stroke:none;" d="M81 10L82 13L83 13L81 10M67 11L68 12L67 11z"/>
<path style="fill:#5b67ab; stroke:none;" d="M81 11L82 12L81 11M67 12L68 13L67 12z"/>
<path style="fill:#9ea7d0; stroke:none;" d="M66.3333 13.6667L66.6667 14.3333L66.3333 13.6667z"/>
<path style="fill:#5b67ab; stroke:none;" d="M82 13L83 14L82 13z"/>
<path style="fill:#9ea7d0; stroke:none;" d="M83.3333 14.6667L83.6667 15.3333L83.3333 14.6667z"/>
<path style="fill:#5b67ab; stroke:none;" d="M66 15L67 16L66 15z"/>
<path style="fill:#9ea7d0; stroke:none;" d="M23 16L23 17L26 17L23 16M65 16L66 17L65 16z"/>
<path style="fill:#5b67ab; stroke:none;" d="M83 16L84 20L85 20L83 16z"/>
<path style="fill:#9ea7d0; stroke:none;" d="M124 16L124 17L127 17L124 16M20 17L17 21L20 17z"/>
<path style="fill:#5b67ab; stroke:none;" d="M20 18L20 19L24 18L20 18z"/>
<path style="fill:#0b1d87; stroke:none;" d="M24.0147 17.8773C13.1583 18.3055 16.2832 38.5035 25.9815 37.534C34.7454 36.6578 33.5512 17.5012 24.0147 17.8773z"/>
<path style="fill:#5b67ab; stroke:none;" d="M25 17L25 18L28 18L25 17M65 17L66 22L67 22L65 17z"/>
<path style="fill:#9ea7d0; stroke:none;" d="M84 17L85 18L84 17M122 17L123 18L122 17z"/>
<path style="fill:#5b67ab; stroke:none;" d="M123.667 17.3333L124.333 17.6667L123.667 17.3333z"/>
<path style="fill:#0b1d87; stroke:none;" d="M125.004 17.8009C115.647 18.8023 115.926 38.8952 125.012 37.5733C134.601 36.1781 135.922 16.6325 125.004 17.8009z"/>
<path style="fill:#5b67ab; stroke:none;" d="M127 17L128 18L127 17z"/>
<path style="fill:#9ea7d0; stroke:none;" d="M128 17L128 18L132 20L128 17z"/>
<path style="fill:#5b67ab; stroke:none;" d="M28 18L30 20L28 18z"/>
<path style="fill:#9ea7d0; stroke:none;" d="M29 18L30 19L29 18M64.3333 18.6667L64.6667 19.3333L64.3333 18.6667M120 18L119 20L120 18z"/>
<path style="fill:#5b67ab; stroke:none;" d="M121 18L122 19L121 18M129 18L130 19L129 18M120 19L121 20L120 19M130 19L131 20L130 19M18 20L19 21L18 20z"/>
<path style="fill:#091d9b; stroke:none;" d="M19 21L19 24L22 25C17.8751 35.3494 29.7141 40.0424 29 27L22 25L23 20L19 21M25 21L26 24L28 24L29 21L28 20L25 21z"/>
<path style="fill:#5b67ab; stroke:none;" d="M30 20L31 21L30 20z"/>
<path style="fill:#9ea7d0; stroke:none;" d="M84 20L85 21L84 20z"/>
<path style="fill:#5b67ab; stroke:none;" d="M119 20L120 21L119 20M131 20L132 21L131 20M17.3333 21.6667L17.6667 22.3333L17.3333 21.6667z"/>
<path style="fill:#9ea7d0; stroke:none;" d="M31 21L32 22L31 21M65 21L66 22L65 21z"/>
<path style="fill:#5b67ab; stroke:none;" d="M83 21L82 23L83 21z"/>
<path style="fill:#9ea7d0; stroke:none;" d="M118 21L119 22L118 21z"/>
<path style="fill:#091d9b; stroke:none;" d="M127 36L127 34C122.659 31.335 122.407 27.5345 127 25L126 32L129 33C129.535 31.3086 129.987 29.7424 130.236 27.9761C130.94 22.9951 126.459 17.7851 121.742 22.6034C117.35 27.0904 120.5 37.0098 127 36z"/>
<path style="fill:#9ea7d0; stroke:none;" d="M132 21L133 22L132 21M16.3333 22.6667L16.6667 23.3333L16.3333 22.6667z"/>
<path style="fill:#5b67ab; stroke:none;" d="M31 22L31 25L32 25L31 22z"/>
<path style="fill:#9ea7d0; stroke:none;" d="M66 22L67 23L66 22M83 22L84 23L83 22z"/>
<path style="fill:#5b67ab; stroke:none;" d="M118.333 22.6667L118.667 23.3333L118.333 22.6667M132 22L133 23L132 22M67 23L68 24L67 23z"/>
<path style="fill:#9ea7d0; stroke:none;" d="M82.3333 23.6667L82.6667 24.3333L82.3333 23.6667M133.333 23.6667L133.667 24.3333L133.333 23.6667z"/>
<path style="fill:#5b67ab; stroke:none;" d="M16 24L16 28L17 28L16 24z"/>
<path style="fill:#9ea7d0; stroke:none;" d="M67 24L68 25L67 24M117 24L117 32L118 32L117 24M32 25L32 30L33 30L32 25z"/>
<path style="fill:#5b67ab; stroke:none;" d="M68 25L69 26L68 25z"/>
<path style="fill:#9ea7d0; stroke:none;" d="M81 25L82 26L81 25z"/>
<path style="fill:#5b67ab; stroke:none;" d="M133.333 25.6667L133.667 26.3333L133.333 25.6667z"/>
<path style="fill:#9ea7d0; stroke:none;" d="M68 26L69 27L68 26z"/>
<path style="fill:#5b67ab; stroke:none;" d="M80 26L81 27L80 26M69 27L70 28L69 27z"/>
<path style="fill:#9ea7d0; stroke:none;" d="M80 27L81 28L80 27M133.333 27.6667L133.667 28.3333L133.333 27.6667M16.3333 28.6667L16.6667 29.3333L16.3333 28.6667z"/>
<path style="fill:#5b67ab; stroke:none;" d="M70 28L71 29L70 28M78 28L77 30L78 28z"/>
<path style="fill:#9ea7d0; stroke:none;" d="M79 28L80 29L79 28z"/>
<path style="fill:#0b1d87; stroke:none;" d="M22 30L29 33L22 30z"/>
<path style="fill:#9ea7d0; stroke:none;" d="M71 29L72 30L71 29z"/>
<path style="fill:#5b67ab; stroke:none;" d="M72 29L73 30L72 29z"/>
<path style="fill:#9ea7d0; stroke:none;" d="M78 29L79 30L78 29z"/>
<path style="fill:#5b67ab; stroke:none;" d="M17 30L19 33L17 30M31 30L31 33L32 33L31 30z"/>
<path style="fill:#9ea7d0; stroke:none;" d="M73 30L73 31L76 31L73 30z"/>
<path style="fill:#5b67ab; stroke:none;" d="M118 30L118 34L119 34L118 30M132 30L133 31L132 30z"/>
<path style="fill:#9ea7d0; stroke:none;" d="M67 31L68 32L67 31z"/>
<path style="fill:#5b67ab; stroke:none;" d="M68 31L69 32L68 31M80 31L81 32L80 31z"/>
<path style="fill:#9ea7d0; stroke:none;" d="M81.6667 31.3333L82.3333 31.6667L81.6667 31.3333M132 31L133 32L132 31M17 32L18 33L17 32M65 32L66 33L65 32z"/>
<path style="fill:#5b67ab; stroke:none;" d="M66 32L67 33L66 32z"/>
<path style="fill:#0b1d87; stroke:none;" d="M55 56C58.1942 55.9865 60.2708 56.4029 61 53L57 54L60 38L65 39L66 36L67 36C68.6638 40.8736 70.782 46.2864 76 48L76 44C80.5809 45.527 85.8061 38.7612 82 38L82 37C85.9042 38.3422 87.8507 40.0014 89 44L82 43L84 50L65 50L66 43L65 43L65 45L64 45L61 42L60 52L62 52L62 45L63 45L64 56L85 56L86 45C91.08 54.4914 98.6301 53.8419 103.947 44.0039C104.936 42.1729 105.756 38.5619 102.756 38.0602C99.3944 37.498 95.5173 42.2359 93 44C90.1122 37.8235 87.0741 33.1243 80 32L78 43L77 43C76.3005 39.3005 77.1281 33.8846 73 33L73 43L72 43L69 32C57.1985 34.8048 55.2274 44.9812 55 56z"/>
<path style="fill:#9ea7d0; stroke:none;" d="M69 32L70 33L69 32M73 32L74 33L73 32z"/>
<path style="fill:#5b67ab; stroke:none;" d="M74 32L75 33L74 32z"/>
<path style="fill:#9ea7d0; stroke:none;" d="M75 32L76 33L75 32z"/>
<path style="fill:#5b67ab; stroke:none;" d="M83 32L84 33L83 32z"/>
<path style="fill:#9ea7d0; stroke:none;" d="M84.6667 32.3333L85.3333 32.6667L84.6667 32.3333z"/>
<path style="fill:#5b67ab; stroke:none;" d="M131 32L132 33L131 32z"/>
<path style="fill:#9ea7d0; stroke:none;" d="M18 33L19 34L18 33M31.3333 33.6667L31.6667 34.3333L31.3333 33.6667M62 33L63 34L62 33z"/>
<path style="fill:#5b67ab; stroke:none;" d="M63 33L64 34L63 33M69.3333 33.6667L69.6667 34.3333L69.3333 33.6667z"/>
<path style="fill:#9ea7d0; stroke:none;" d="M72.3333 33.6667L72.6667 34.3333L72.3333 33.6667z"/>
<path style="fill:#5b67ab; stroke:none;" d="M76.3333 33.6667L76.6667 34.3333L76.3333 33.6667z"/>
<path style="fill:#9ea7d0; stroke:none;" d="M79.3333 33.6667L79.6667 34.3333L79.3333 33.6667z"/>
<path style="fill:#091d9b; stroke:none;" d="M81 33L82 34L81 33z"/>
<path style="fill:#5b67ab; stroke:none;" d="M86 33L89 36L86 33z"/>
<path style="fill:#9ea7d0; stroke:none;" d="M87 33L88 34L87 33M131 33L132 34L131 33z"/>
<path style="fill:#5b67ab; stroke:none;" d="M19 34L23 38L19 34z"/>
<path style="fill:#9ea7d0; stroke:none;" d="M60 34L61 35L60 34z"/>
<path style="fill:#5b67ab; stroke:none;" d="M61 34L62 35L61 34z"/>
<path style="fill:#9ea7d0; stroke:none;" d="M88 34L89 35L88 34M118 34L119 35L118 34z"/>
<path style="fill:#5b67ab; stroke:none;" d="M130 34L127 38L130 34z"/>
<path style="fill:#9ea7d0; stroke:none;" d="M19 35L20 36L19 35z"/>
<path style="fill:#5b67ab; stroke:none;" d="M30 35L24 38L24 39L30 35M59 35L60 36L59 35M73.3333 35.6667L73.6667 36.3333L73.3333 35.6667z"/>
<path style="fill:#9ea7d0; stroke:none;" d="M76 35L77 36L76 35z"/>
<path style="fill:#5b67ab; stroke:none;" d="M79.3333 35.6667L79.6667 36.3333L79.3333 35.6667z"/>
<path style="fill:#091d9b; stroke:none;" d="M83 35L84 36L83 35z"/>
<path style="fill:#5b67ab; stroke:none;" d="M119 35L120 36L119 35z"/>
<path style="fill:#9ea7d0; stroke:none;" d="M130 35L131 36L130 35M20 36L21 37L20 36M30 36L31 37L30 36M58 36L59 37L58 36z"/>
<path style="fill:#091d9b; stroke:none;" d="M63 36L64 37L63 36M66 36L65 39L60 38L57 54L61 53C60.5853 50.7934 60.7221 39.4246 64 45L65 45L65 43L66 43L65 50L84 50L82 43L89 44C88.2987 39.5647 86.3526 37.8887 82 37L82 38L84 39L76 44L76 48L66 36z"/>
<path style="fill:#9ea7d0; stroke:none;" d="M70.3333 36.6667L70.6667 37.3333L70.3333 36.6667M89 36L91 38L89 36M101 36L101 37L105 38L105 37L101 36M119 36L120 37L119 36M129 36L130 37L129 36M21 37L22 38L21 37M29 37L30 38L29 37z"/>
<path style="fill:#5b67ab; stroke:none;" d="M58 37L59 38L58 37z"/>
<path style="fill:#9ea7d0; stroke:none;" d="M76.3333 37.6667L76.6667 38.3333L76.3333 37.6667M78.3333 37.6667L78.6667 38.3333L78.3333 37.6667z"/>
<path style="fill:#5b67ab; stroke:none;" d="M89 37L90 38L89 37z"/>
<path style="fill:#9ea7d0; stroke:none;" d="M99 37L98 39L99 37z"/>
<path style="fill:#5b67ab; stroke:none;" d="M100 37L101 38L100 37M103 37L104 38L103 37M120 37L120 38L126 39L126 38L120 37z"/>
<path style="fill:#9ea7d0; stroke:none;" d="M128 37L129 38L128 37M23 38L24 39L23 38M28 38L29 39L28 38M57.3333 38.6667L57.6667 39.3333L57.3333 38.6667z"/>
<path style="fill:#0b1d87; stroke:none;" d="M66 38L67 39L66 38z"/>
<path style="fill:#5b67ab; stroke:none;" d="M70 38L71 39L70 38M90 38L92 41L90 38M99 38L100 39L99 38z"/>
<path style="fill:#9ea7d0; stroke:none;" d="M105 38L106 39L105 38M121 38L122 39L121 38M126 38L127 39L126 38M25.6667 39.3333L26.3333 39.6667L25.6667 39.3333M71 39L71 41L73 41L73 39L71 39z"/>
<path style="fill:#5b67ab; stroke:none;" d="M76.3333 39.6667L76.6667 40.3333L76.3333 39.6667M78 39L79 40L78 39z"/>
<path style="fill:#9ea7d0; stroke:none;" d="M91 39L92 40L91 39z"/>
<path style="fill:#5b67ab; stroke:none;" d="M98 39L99 40L98 39z"/>
<path style="fill:#091d9b; stroke:none;" d="M89 44L92 47L91 51L92 52L95 51L94 47L95 47L97 50L98 45C101.492 43.9434 102.432 42.5824 103 39C97.1244 42.0379 96.2223 47.5774 89 44z"/>
<path style="fill:#5b67ab; stroke:none;" d="M105 39L106 40L105 39z"/>
<path style="fill:#9ea7d0; stroke:none;" d="M123.667 39.3333L124.333 39.6667L123.667 39.3333z"/>
<path style="fill:#5b67ab; stroke:none;" d="M57 40L58 41L57 40M97 40L98 41L97 40z"/>
<path style="fill:#9ea7d0; stroke:none;" d="M19 41L18 43L19 41z"/>
<path style="fill:#5b67ab; stroke:none;" d="M20 41L20 42L26 44L26 43L20 41z"/>
<path style="fill:#9ea7d0; stroke:none;" d="M23 41L24 42L23 41M56.3333 41.6667L56.6667 42.3333L56.3333 41.6667z"/>
<path style="fill:#5b67ab; stroke:none;" d="M71.6667 41.3333L72.3333 41.6667L71.6667 41.3333z"/>
<path style="fill:#9ea7d0; stroke:none;" d="M77 41L78 42L77 41M92 41L95 44L92 41z"/>
<path style="fill:#5b67ab; stroke:none;" d="M96 41L97 42L96 41M105 41L104 44L105 41z"/>
<path style="fill:#9ea7d0; stroke:none;" d="M126 41L127 42L126 41z"/>
<path style="fill:#5b67ab; stroke:none;" d="M127 41L127 42L131 45L132 45L127 41z"/>
<path style="fill:#9ea7d0; stroke:none;" d="M130 41L131 42L130 41z"/>
<path style="fill:#0b1d87; stroke:none;" d="M20 84L31 86L26 83L45 80L43 83L43 84C47.0756 87.8006 49.2337 90.2331 48 96L47 96L47 92L46 92L46 99L49 113L47 106C44.4348 106 43.2835 90.2134 46 88L46 87L33 85L33 86C43.9456 86.3564 41.8367 97.7209 42.8449 106C43.2004 108.919 43.1901 114.082 47.1142 114.534C55.0604 115.45 50.8024 97.2149 50.2847 93C49.8135 89.1628 50.3307 83.6984 47.4113 80.6991C44.0556 77.2516 37.646 78.0791 35.0278 73.7724C31.0701 67.2623 33.4287 54.6615 31 47L30 47L31 53C28.7203 49.7986 26.4864 43.2084 22.0656 42.5818C17.5395 41.9403 17.171 48.9974 17.0394 52C16.592 62.2013 18.1381 73.9707 20 84z"/>
<path style="fill:#091d9b; stroke:none;" d="M72 42L73 43L72 42M77 42L78 43L77 42z"/>
<path style="fill:#5b67ab; stroke:none;" d="M92 42L93 43L92 42z"/>
<path style="fill:#9ea7d0; stroke:none;" d="M95 42L96 43L95 42z"/>
<path style="fill:#5b67ab; stroke:none;" d="M125 42L124 44L125 42z"/>
<path style="fill:#0b1d87; stroke:none;" d="M120 53L119 53L120 47L119 47L116 60L117 60L118 60L119 55L121 56L124 49L126 52L127 49L128 49L126 44L129 49C134.123 49 129.103 69.0712 129 73L128 73L126 59L123 61L121 58L123 79L124 79L124 76C128.97 80.8423 123.914 82.4529 119 82C119 86.6577 107.931 80.157 107 89L104 87L102 97L101 97L102 83L106 83L106 80L113 79L112 82L121 79L121 78L118 78L120 74L118 75L118 74C119.012 69.9947 119.396 63.7478 116 61C116 64.7338 117.037 70.4277 114.972 73.7222C112.189 78.1638 105.232 77.1959 102.009 81.3935C97.9896 86.6287 97.9105 101.471 98.034 107.999C98.0939 111.17 99.5559 115.826 103.776 114.338C110.471 111.978 106.46 94.5621 109.434 89.1481C112.096 84.3017 124.894 84.6487 130 84C130.84 73.3609 133.936 61.6388 132.826 51C131.424 37.5648 123.036 44.532 120 53z"/>
<path style="fill:#9ea7d0; stroke:none;" d="M131 42L132 43L131 42z"/>
<path style="fill:#5b67ab; stroke:none;" d="M18 43L19 44L18 43M56.3333 43.6667L56.6667 44.3333L56.3333 43.6667z"/>
<path style="fill:#0b1d87; stroke:none;" d="M68.3333 43.6667L68.6667 44.3333L68.3333 43.6667z"/>
<path style="fill:#9ea7d0; stroke:none;" d="M105 43L106 44L105 43M17 44L18 45L17 44z"/>
<path style="fill:#091d9b; stroke:none;" d="M20 44L20 45L23 46L20 44z"/>
<path style="fill:#9ea7d0; stroke:none;" d="M26 44L27 45L26 44M104 44L105 45L104 44M123 44L124 45L123 44z"/>
<path style="fill:#091d9b; stroke:none;" d="M126 44L128 49L127 49L126 47L126 52L124 49L121 56L119 55C117.673 57.5048 116.038 60.4465 119 62L118 75L120 74C118.511 76.5041 117.729 77.6035 121 78L121 79L112 82L113 79L106 80L106 83L102 83L101 97L102 97L104 87L107 89L119 82C121.101 82.7949 128.664 83.5301 127.833 79C127.235 75.7381 124.355 76.0689 124 79L123 79L121 58L123 61L126 59L128 73L129 73C129.494 68.8412 134.186 49.8644 129 49C129.494 45.8628 129.036 45.0004 126 44z"/>
<path style="fill:#9ea7d0; stroke:none;" d="M132.333 44.6667L132.667 45.3333L132.333 44.6667z"/>
<path style="fill:#5b67ab; stroke:none;" d="M17 45L17 48L18 48L17 45z"/>
<path style="fill:#091d9b; stroke:none;" d="M24.3333 45.6667L24.6667 46.3333L24.3333 45.6667z"/>
<path style="fill:#5b67ab; stroke:none;" d="M26 45L27 46L26 45z"/>
<path style="fill:#9ea7d0; stroke:none;" d="M29 45L29 51L30 51L31 45L29 45z"/>
<path style="fill:#091d9b; stroke:none;" d="M62 45L63 46L62 45M86 45L85 47L86 45z"/>
<path style="fill:#9ea7d0; stroke:none;" d="M103 45L104 46L103 45M119 45L120 48L121 48L121 45L119 45M27 46L28 47L27 46z"/>
<path style="fill:#5b67ab; stroke:none;" d="M30 46L31 47L30 46z"/>
<path style="fill:#9ea7d0; stroke:none;" d="M55.3333 46.6667L55.6667 47.3333L55.3333 46.6667z"/>
<path style="fill:#5b67ab; stroke:none;" d="M62 46L63 50L64 50L62 46z"/>
<path style="fill:#0b1d87; stroke:none;" d="M67 46L67 47L67 48L70 47L70 46L67 46z"/>
<path style="fill:#5b67ab; stroke:none;" d="M86 46L85 56L64 56L64 57C74.1002 57 88.26 60.4813 86 46z"/>
<path style="fill:#9ea7d0; stroke:none;" d="M102 46L103 47L102 46z"/>
<path style="fill:#5b67ab; stroke:none;" d="M119 46L120 47L119 46M122.333 46.6667L122.667 47.3333L122.333 46.6667M132 46L132 49L133 49L132 46M27 47L28 48L27 47z"/>
<path style="fill:#9ea7d0; stroke:none;" d="M31 47L32 48L31 47M86 47L86 49L88 49L86 47z"/>
<path style="fill:#5b67ab; stroke:none;" d="M101 47L102 48L101 47z"/>
<path style="fill:#9ea7d0; stroke:none;" d="M118 47L119 48L118 47M16 48L16 61L17 61L16 48z"/>
<path style="fill:#091d9b; stroke:none;" d="M19 48L20 69L21 69C22.9256 62.4855 23.0466 54.4856 21 48L19 48z"/>
<path style="fill:#fbfcfd; stroke:none;" d="M29 48L30 49L29 48z"/>
<path style="fill:#5b67ab; stroke:none;" d="M31 48L32 49L31 48M55.3333 48.6667L55.6667 49.3333L55.3333 48.6667z"/>
<path style="fill:#9ea7d0; stroke:none;" d="M62 48L63 57L64 57L62 48z"/>
<path style="fill:#5b67ab; stroke:none;" d="M100 48L101 49L100 48M118 48L119 49L118 48z"/>
<path style="fill:#fbfcfd; stroke:none;" d="M120 48L121 49L120 48z"/>
<path style="fill:#5b67ab; stroke:none;" d="M121 48L119 53L120 53L121 48M28 49L29 50L28 49z"/>
<path style="fill:#9ea7d0; stroke:none;" d="M32 49L33 50L32 49z"/>
<path style="fill:#5b67ab; stroke:none;" d="M88 49L89 50L88 49M99 49L100 50L99 49z"/>
<path style="fill:#9ea7d0; stroke:none;" d="M117 49L118 50L117 49M120 49L121 50L120 49M133 49L133 58L134 58L133 49z"/>
<path style="fill:#5b67ab; stroke:none;" d="M32.3333 50.6667L32.6667 51.3333L32.3333 50.6667z"/>
<path style="fill:#9ea7d0; stroke:none;" d="M88 50L89 51L88 50z"/>
<path style="fill:#0b1d87; stroke:none;" d="M92 50L93 51L92 50z"/>
<path style="fill:#5b67ab; stroke:none;" d="M98 50L99 51L98 50M117 50L118 51L117 50z"/>
<path style="fill:#091d9b; stroke:none;" d="M25 51L22 81L25 82C29.7547 74.9615 30.1882 57.9722 25 51z"/>
<path style="fill:#5b67ab; stroke:none;" d="M29 51L31 53L31 51L29 51z"/>
<path style="fill:#9ea7d0; stroke:none;" d="M89 51L90 52L89 51z"/>
<path style="fill:#5b67ab; stroke:none;" d="M97 51L98 52L97 51z"/>
<path style="fill:#9ea7d0; stroke:none;" d="M116.333 51.6667L116.667 52.3333L116.333 51.6667M33.3333 52.6667L33.6667 53.3333L33.3333 52.6667z"/>
<path style="fill:#5b67ab; stroke:none;" d="M61 52L61 56L55 56L55 57C58.5946 56.882 62.4392 56.392 61 52z"/>
<path style="fill:#091d9b; stroke:none;" d="M65 52L65 55C69.5983 54.1306 82.0642 56.3671 83 52L65 52z"/>
<path style="fill:#9ea7d0; stroke:none;" d="M90 52L91 53L90 52z"/>
<path style="fill:#5b67ab; stroke:none;" d="M96 52L97 53L96 52z"/>
<path style="fill:#0b1d87; stroke:none;" d="M127 52L128 53L127 52M25.3333 53.6667L25.6667 54.3333L25.3333 53.6667z"/>
<path style="fill:#9ea7d0; stroke:none;" d="M91.6667 53.3333L92.3333 53.6667L91.6667 53.3333z"/>
<path style="fill:#5b67ab; stroke:none;" d="M93 53L94 54L93 53z"/>
<path style="fill:#9ea7d0; stroke:none;" d="M94.6667 53.3333L95.3333 53.6667L94.6667 53.3333z"/>
<path style="fill:#5b67ab; stroke:none;" d="M116 53L116 58L117 58L116 53M33 54L33 60L34 60L33 54z"/>
<path style="fill:#9ea7d0; stroke:none;" d="M54 54L54 57L55 57L54 54z"/>
<path style="fill:#091d9b; stroke:none;" d="M30 55L31 56L30 55z"/>
<path style="fill:#0b1d87; stroke:none;" d="M126 55L126 56L126 57L129 56L129 55L126 55z"/>
<path style="fill:#9ea7d0; stroke:none;" d="M46 56L46 57L49 58L46 56M61 56L62 57L61 56M85 56L86 57L85 56M101.667 56.3333L102.333 56.6667L101.667 56.3333z"/>
<path style="fill:#091d9b; stroke:none;" d="M30 57L30 60L32 59L32 58L30 57z"/>
<path style="fill:#5b67ab; stroke:none;" d="M45 57L45 58L48 59L45 57z"/>
<path style="fill:#0b1d87; stroke:none;" d="M47 57L48 58L47 57z"/>
<path style="fill:#5b67ab; stroke:none;" d="M101 57L102 58L101 57z"/>
<path style="fill:#0b1d87; stroke:none;" d="M102 57L110 70C89.5896 68.4906 59.4355 63.9166 40 71L47 58C42.1343 60.9519 39.3748 66.4055 39 72L100 72L98 71L98 70L102 70L101 73L110 73C111.553 66.5678 106.916 60.7945 102 57z"/>
<path style="fill:#5b67ab; stroke:none;" d="M103 57L105 59L103 57z"/>
<path style="fill:#9ea7d0; stroke:none;" d="M104 57L105 58L104 57M115 57L115 66L116 66L115 57M44 58L43 60L44 58M101 58L102 59L101 58z"/>
<path style="fill:#5b67ab; stroke:none;" d="M132 58L132 65L133 65L132 58z"/>
<path style="fill:#9ea7d0; stroke:none;" d="M34 59L34 68L35 68L34 59z"/>
<path style="fill:#5b67ab; stroke:none;" d="M44 59L45 60L44 59z"/>
<path style="fill:#9ea7d0; stroke:none;" d="M47 59L48 60L47 59z"/>
<path style="fill:#5b67ab; stroke:none;" d="M102 59L103 60L102 59M105 59L106 60L105 59z"/>
<path style="fill:#0b1d87; stroke:none;" d="M128 59L128 62L129 62L128 59z"/>
<path style="fill:#5b67ab; stroke:none;" d="M17 60L17 67L18 67L17 60M43 60L44 61L43 60M46 60L47 61L46 60z"/>
<path style="fill:#9ea7d0; stroke:none;" d="M102 60L103 61L102 60M106 60L108 62L106 60z"/>
<path style="fill:#5b67ab; stroke:none;" d="M116 60L117 61L116 60z"/>
<path style="fill:#9ea7d0; stroke:none;" d="M42 61L41 63L42 61M46 61L47 62L46 61M103 61L104 62L103 61z"/>
<path style="fill:#5b67ab; stroke:none;" d="M106 61L107 62L106 61M42 62L43 63L42 62z"/>
<path style="fill:#9ea7d0; stroke:none;" d="M45 62L46 63L45 62z"/>
<path style="fill:#5b67ab; stroke:none;" d="M104 62L105 63L104 62M107 62L108 63L107 62M33.3333 63.6667L33.6667 64.3333L33.3333 63.6667M41 63L42 64L41 63M44 63L45 64L44 63z"/>
<path style="fill:#9ea7d0; stroke:none;" d="M104 63L105 64L104 63M108 63L109 64L108 63z"/>
<path style="fill:#091d9b; stroke:none;" d="M30 64C30 70.5079 28.7423 79.9202 38 79L32 75L31 70L30 64z"/>
<path style="fill:#9ea7d0; stroke:none;" d="M40 64L39 66L40 64M44 64L43 67L44 64z"/>
<path style="fill:#5b67ab; stroke:none;" d="M105 64L106 65L105 64M108 64L109 65L108 64M40 65L41 66L40 65M43 65L44 66L43 65z"/>
<path style="fill:#9ea7d0; stroke:none;" d="M105 65L106 66L105 65M109 65L110 66L109 65M132 65L132 69L133 69L132 65z"/>
<path style="fill:#5b67ab; stroke:none;" d="M39 66L40 67L39 66M42 66C45.1493 70.8578 53.7851 69 59 69L107 69L107 68L63 68L42 66M106 66L107 67L106 66z"/>
<path style="fill:#9ea7d0; stroke:none;" d="M110 66L111 67L110 66z"/>
<path style="fill:#5b67ab; stroke:none;" d="M115 66L114 76L115 76L115 66z"/>
<path style="fill:#9ea7d0; stroke:none;" d="M17 67L17 71L18 71L17 67M38 67L37 73L38 73L38 67M106 67L107 68L106 67z"/>
<path style="fill:#091d9b; stroke:none;" d="M107 67L108 68L107 67z"/>
<path style="fill:#5b67ab; stroke:none;" d="M110 67L111 68L110 67M34 68L35 76L36 76L34 68M38 68L38 73L73 73L73 72L39 72L38 68z"/>
<path style="fill:#091d9b; stroke:none;" d="M40 71L44 69L40 71z"/>
<path style="fill:#9ea7d0; stroke:none;" d="M111 68L112 69L111 68z"/>
<path style="fill:#091d9b; stroke:none;" d="M22.3333 69.6667L22.6667 70.3333L22.3333 69.6667M106 69L106 70L110 70L106 69z"/>
<path style="fill:#5b67ab; stroke:none;" d="M111 69L110 73L111 73L111 69M131 69L131 74L132 74L131 69M18 70L18 76L19 76L18 70z"/>
<path style="fill:#091d9b; stroke:none;" d="M46 70L47 71L46 70M48.6667 70.3333L49.3333 70.6667L48.6667 70.3333M64 70L64 71L78 71L64 70M82 70L82 71L95 71L82 70M98 70L98 71L102 71L98 70z"/>
<path style="fill:#5b67ab; stroke:none;" d="M74 72L74 73L97 73L74 72M98 72L98 73L101 73L98 72M102 72L102 73L106 73L102 72M107.667 72.3333L108.333 72.6667L107.667 72.3333z"/>
<path style="fill:#9ea7d0; stroke:none;" d="M111 72L112 73L111 72M114 72L114 75L115 75L114 72M35.3333 73.6667L35.6667 74.3333L35.3333 73.6667M131 74L131 79L132 79L131 74M113 75L114 76L113 75M18 76L18 81L19 81L18 76z"/>
<path style="fill:#5b67ab; stroke:none;" d="M37 76L38 77L37 76z"/>
<path style="fill:#9ea7d0; stroke:none;" d="M38.6667 76.3333L39.3333 76.6667L38.6667 76.3333z"/>
<path style="fill:#5b67ab; stroke:none;" d="M65 76L66 77L65 76z"/>
<path style="fill:#0b1d87; stroke:none;" d="M66.213 76.8511C60.4907 78.8176 63.2595 101.894 64.2284 106.981C64.747 109.703 66.7232 112.427 69.8673 111.338C76.1782 109.152 72.7952 86.3076 71.7716 81.044C71.2553 78.3888 69.2443 75.8093 66.213 76.8511z"/>
<path style="fill:#5b67ab; stroke:none;" d="M69 76L70 77L69 76z"/>
<path style="fill:#9ea7d0; stroke:none;" d="M79 76L77 79L79 76z"/>
<path style="fill:#0b1d87; stroke:none;" d="M80.2238 77.0864C75.0672 79.7514 75.5821 100.68 76.1875 105.995C76.5274 108.98 79.2636 112.804 82.6836 110.914C88.4473 107.728 86.4411 87.6364 85.9414 82.0046C85.6796 79.0549 83.8616 75.2063 80.2238 77.0864z"/>
<path style="fill:#9ea7d0; stroke:none;" d="M84 76L85 77L84 76M110 76L111 77L110 76z"/>
<path style="fill:#5b67ab; stroke:none;" d="M111 76L112 77L111 76M41 77L42 78L41 77z"/>
<path style="fill:#9ea7d0; stroke:none;" d="M42 77L43 78L42 77M63 77L62 98L63 98L63 77M71 77L72 78L71 77z"/>
<path style="fill:#5b67ab; stroke:none;" d="M85 77L86 78L85 77z"/>
<path style="fill:#9ea7d0; stroke:none;" d="M86.3333 77.6667L86.6667 78.3333L86.3333 77.6667M107 77L108 78L107 77z"/>
<path style="fill:#5b67ab; stroke:none;" d="M108 77L109 78L108 77M43 78L44 79L43 78z"/>
<path style="fill:#9ea7d0; stroke:none;" d="M44.6667 78.3333L45.3333 78.6667L44.6667 78.3333z"/>
<path style="fill:#5b67ab; stroke:none;" d="M63 78L64 79L63 78z"/>
<path style="fill:#091d9b; stroke:none;" d="M66 78L65 100L66 100L68 98L68 110C75.6266 104.188 68.0887 86.1065 69 78L66 78z"/>
<path style="fill:#5b67ab; stroke:none;" d="M71 78L72 79L71 78z"/>
<path style="fill:#091d9b; stroke:none;" d="M80 78L82 83L83 83L83 78L80 78z"/>
<path style="fill:#9ea7d0; stroke:none;" d="M104 78L105 79L104 78z"/>
<path style="fill:#5b67ab; stroke:none;" d="M105 78L106 79L105 78z"/>
<path style="fill:#091d9b; stroke:none;" d="M115 78L116 79L115 78z"/>
<path style="fill:#5b67ab; stroke:none;" d="M46 79L47 80L46 79M77 79L78 80L77 79M86 79L86 94L87 94L86 79z"/>
<path style="fill:#9ea7d0; stroke:none;" d="M102 79L103 80L102 79z"/>
<path style="fill:#5b67ab; stroke:none;" d="M103 79L104 80L103 79M130 79L130 84L131 84L130 79z"/>
<path style="fill:#091d9b; stroke:none;" d="M44 80L26 83L32 86L33 86C38.2744 83.2036 40.8288 85.5306 46 87L46 88C43.0769 90.1365 43.5824 105.412 47 106C46.1147 109.292 45.0753 112.159 49 113L46 99L48 99L46 92L47 92L47 96L48 96C49.64 90.2771 47.7497 87.2133 43 84L43 83L44 80z"/>
<path style="fill:#9ea7d0; stroke:none;" d="M48 80L49 81L48 80M72 80L72 85L73 85L72 80M87 80L87 84L88 84L87 80M101 80L100 83L101 83L101 80z"/>
<path style="fill:#5b67ab; stroke:none;" d="M19 81L19 84L20 84L19 81z"/>
<path style="fill:#9ea7d0; stroke:none;" d="M49 81L49 84L50 84L49 81z"/>
<path style="fill:#091d9b; stroke:none;" d="M84 81L84 84L85 84L84 81z"/>
<path style="fill:#5b67ab; stroke:none;" d="M101 81L102 82L101 81z"/>
<path style="fill:#091d9b; stroke:none;" d="M80 82L81 83L80 82z"/>
<path style="fill:#5b67ab; stroke:none;" d="M100 83L101 84L100 83z"/>
<path style="fill:#9ea7d0; stroke:none;" d="M19 84L19 85L23 85L19 84z"/>
<path style="fill:#5b67ab; stroke:none;" d="M23 84L24 85L23 84M49.3333 84.6667L49.6667 85.3333L49.3333 84.6667z"/>
<path style="fill:#091d9b; stroke:none;" d="M80 84L79 97L83 96L83 89L82 89L82 92L81 92L80 84z"/>
<path style="fill:#0b1d87; stroke:none;" d="M104 84L105 85L104 84z"/>
<path style="fill:#5b67ab; stroke:none;" d="M126 84L127 85L126 84z"/>
<path style="fill:#9ea7d0; stroke:none;" d="M127 84L127 85L131 85L127 84M24 85L25 86L24 85z"/>
<path style="fill:#5b67ab; stroke:none;" d="M25 85L25 86L30 86L25 85M31 85L32 86L31 85M72 85L72 93L73 93L72 85M120 85L120 86L125 86L120 85z"/>
<path style="fill:#9ea7d0; stroke:none;" d="M125 85L126 86L125 85M29 86L29 87L35 87L29 86z"/>
<path style="fill:#5b67ab; stroke:none;" d="M35 86L35 87L40 87L35 86M109 87L109 88L117 87L109 87z"/>
<path style="fill:#9ea7d0; stroke:none;" d="M117 86L117 87L122 87L117 86z"/>
<path style="fill:#5b67ab; stroke:none;" d="M40.3333 87.6667L40.6667 88.3333L40.3333 87.6667z"/>
<path style="fill:#9ea7d0; stroke:none;" d="M110 87L111 88L110 87M99 88L99 91L100 91L99 88M109 88L109 92L110 92L109 88M40 89L40 94L41 94L40 89z"/>
<path style="fill:#5b67ab; stroke:none;" d="M63 89L63 102L64 102L63 89z"/>
<path style="fill:#9ea7d0; stroke:none;" d="M76 89L76 95L77 95L76 89M50 90L50 94L51 94L50 90z"/>
<path style="fill:#5b67ab; stroke:none;" d="M41 91L41 99L42 99L41 91M99 91L99 94L100 94L99 91M108 91L108 97L109 97L108 91M50 94L51 95L50 94z"/>
<path style="fill:#9ea7d0; stroke:none;" d="M86 94L86 106L87 106L86 94z"/>
<path style="fill:#5b67ab; stroke:none;" d="M76 95L77 96L76 95z"/>
<path style="fill:#091d9b; stroke:none;" d="M48 96L49 97L48 96z"/>
<path style="fill:#9ea7d0; stroke:none;" d="M76.3333 96.6667L76.6667 97.3333L76.3333 96.6667z"/>
<path style="fill:#091d9b; stroke:none;" d="M103 96L103 108L104 108L103 104L106 96L103 96z"/>
<path style="fill:#9ea7d0; stroke:none;" d="M108 97L108 102L109 102L108 97z"/>
<path style="fill:#5b67ab; stroke:none;" d="M76 98L76 102L77 102L76 98z"/>
<path style="fill:#091d9b; stroke:none;" d="M82 98L78 108L81 111L82 111L82 98z"/>
<path style="fill:#9ea7d0; stroke:none;" d="M98 98L98 102L99 102L98 98M41 99L41 104L42 104L41 99M51 99L51 102L52 102L51 99z"/>
<path style="fill:#5b67ab; stroke:none;" d="M85.3333 100.667L85.6667 101.333L85.3333 100.667z"/>
<path style="fill:#0b1d87; stroke:none;" d="M104 101L105 102L104 101z"/>
<path style="fill:#5b67ab; stroke:none;" d="M51 102L51 106L52 106L51 102z"/>
<path style="fill:#9ea7d0; stroke:none;" d="M63 102L63 110L64 110L63 102M73 102L73 107L74 107L73 102z"/>
<path style="fill:#5b67ab; stroke:none;" d="M98 102L99 103L98 102M107 102L107 108L108 108L107 102M42 103L42 109L43 109L42 103M85 104L85 109L86 109L85 104M73 107L74 108L73 107z"/>
<path style="fill:#091d9b; stroke:none;" d="M50 108L50 111L51 111L50 108z"/>
<path style="fill:#9ea7d0; stroke:none;" d="M73 108L74 109L73 108M97 108L97 113L98 113L97 108M107 108L107 112L108 112L107 108M42 109L42 113L43 113L42 109z"/>
<path style="fill:#5b67ab; stroke:none;" d="M64.3333 109.667L64.6667 110.333L64.3333 109.667M76 109L79 112L76 109z"/>
<path style="fill:#9ea7d0; stroke:none;" d="M85 109L84 112L85 109M52.3333 110.667L52.6667 111.333L52.3333 110.667z"/>
<path style="fill:#5b67ab; stroke:none;" d="M72 110L73 111L72 110z"/>
<path style="fill:#9ea7d0; stroke:none;" d="M76 110L77 111L76 110z"/>
<path style="fill:#5b67ab; stroke:none;" d="M84 110L85 111L84 110z"/>
<path style="fill:#091d9b; stroke:none;" d="M103 110L100 112L103 114L103 110z"/>
<path style="fill:#5b67ab; stroke:none;" d="M43 111L44 115L45 115L43 111M65 111L66 112L65 111M71 111L72 112L71 111z"/>
<path style="fill:#9ea7d0; stroke:none;" d="M77 111L78 112L77 111z"/>
<path style="fill:#5b67ab; stroke:none;" d="M83 111L84 112L83 111z"/>
<path style="fill:#9ea7d0; stroke:none;" d="M66.6667 112.333L67.3333 112.667L66.6667 112.333z"/>
<path style="fill:#5b67ab; stroke:none;" d="M68 112L69 113L68 112z"/>
<path style="fill:#9ea7d0; stroke:none;" d="M69.6667 112.333L70.3333 112.667L69.6667 112.333M78.6667 112.333L79.3333 112.667L78.6667 112.333z"/>
<path style="fill:#5b67ab; stroke:none;" d="M80.6667 112.333L81.3333 112.667L80.6667 112.333z"/>
<path style="fill:#9ea7d0; stroke:none;" d="M82 112L83 113L82 112z"/>
<path style="fill:#5b67ab; stroke:none;" d="M106 112L107 113L106 112M51 113L52 114L51 113M98 113L100 115L98 113z"/>
<path style="fill:#9ea7d0; stroke:none;" d="M106 113L107 114L106 113M43 114L44 115L43 114z"/>
<path style="fill:#5b67ab; stroke:none;" d="M50 114L51 115L50 114z"/>
<path style="fill:#9ea7d0; stroke:none;" d="M98 114L99 115L98 114M105 114L106 115L105 114M45 115L46 116L45 115z"/>
<path style="fill:#5b67ab; stroke:none;" d="M46 115L46 116L49 116L46 115z"/>
<path style="fill:#9ea7d0; stroke:none;" d="M49.6667 115.333L50.3333 115.667L49.6667 115.333M64 132C84.2869 130.323 64.2747 104.669 64.0039 124L64 132M77 132L85 132C85.5153 127.923 86.9239 123.036 85.2577 119.059C83.4712 114.794 78.4898 114.643 76.7569 119.059C75.2973 122.778 76.9673 128.052 77 132M99 115L99 116L102 117L99 115z"/>
<path style="fill:#5b67ab; stroke:none;" d="M101 115L101 116L104 116L101 115z"/>
<path style="fill:#9ea7d0; stroke:none;" d="M104 115L105 116L104 115M47 116L48 117L47 116M50 132C50.7086 130.321 51.3777 128.79 51.6798 126.975C54.7991 108.241 31.1915 129.83 50 132M100 132L107 132C107 128.604 107.961 123.275 105.972 120.319C104.039 117.446 99.9215 118.097 98.6042 121.148C97.1069 124.616 98.645 128.789 100 132z"/>
</svg>
