<?xml version="1.0" standalone="yes"?>
<svg xmlns="http://www.w3.org/2000/svg" width="150" height="150">
<path style="fill:#fcfbf6; stroke:none;" d="M0 0L0 150L72 150L72 149C66.1391 145.844 53.6488 138.33 51.2863 131.91C48.1891 123.496 52.1278 111.736 51.8627 103C51.5983 94.2906 43.8157 87.2379 39.9012 80C33.3267 67.8436 34.2804 53.6087 41.4676 42C64.7221 4.43962 126.687 30.0368 113.427 73C110.295 83.1466 100.648 89.9072 97.7901 99.9992C96.5952 104.219 98.8391 106.211 99.1566 110.09C99.6051 115.567 98.2955 122.584 97 128C102.941 134.5 84.4566 145.997 79 149L79 150L150 150L150 0L80 0L78 16L73 16L71 0L0 0z"/>
<path style="fill:#f9d654; stroke:none;" d="M71 0L73 16L78 16L80 0L74 0L74 4L73 4L73 0L71 0z"/>
<path style="fill:#f9bd27; stroke:none;" d="M73 0L73 4L74 4L73 0M76 0L77 1L76 0M78 2L78 5L79 5L78 2M75 5L73 9L75 5M76 10L74 15L76 10z"/>
<path style="fill:#f9d654; stroke:none;" d="M32.5185 16.9167C23.9313 20.642 36.5207 32.516 41.5116 29.6875C45.946 27.1743 37.1405 14.9116 32.5185 16.9167M115.09 17.1759C110.94 18.7301 103.996 32.336 112.019 29.5486C114.701 28.6169 119.694 25.3986 120.824 22.6759C122.178 19.4143 118.181 16.0181 115.09 17.1759z"/>
<path style="fill:#f9bd27; stroke:none;" d="M35.3333 17.6667L35.6667 18.3333L35.3333 17.6667M116 17L118 21L115 22L116 25L121 22L116 17M32 18L32 22L35 21L32 18M114 19L114 21L116 19L114 19M30 21L31 22L30 21M33 24L36 25L38 21L33 24M112 22L111 29L115 27L112 22z"/>
<path style="fill:#f9d654; stroke:none;" d="M51 108L66 107L65 95L64 95L60 97C71.5584 85.0303 54.0688 68.5217 57 55L67.9606 58.9915L75.0895 56.429L83 59.152L96 57L86 88L98 78C96.3569 80.607 91.0569 84.913 96 86L85 100L91 98L91 99L85 106L97 107C97.5047 95.981 105.73 89.1371 110.826 80C115.533 71.5607 116.46 60.1772 113.48 51C101.796 15.0195 49.4297 13.302 37.1049 50C33.7576 59.9671 34.9139 71.7784 39.9012 81C44.6357 89.754 53.4683 97.2536 51 108z"/>
<path style="fill:#f9bd27; stroke:none;" d="M38 24L37 28L41 24L38 24M110.333 24.6667L110.667 25.3333L110.333 24.6667M41.3333 27.6667L41.6667 28.3333L41.3333 27.6667z"/>
<path style="fill:#fcfbf6; stroke:none;" d="M66.9406 29.9514C57.9482 29.3617 48.313 39.7689 44.8904 47C43.8282 49.2443 39.3515 59.3642 45.0147 59.3642C48.8623 59.3642 50.206 51.6215 51.6474 49.0039C55.8282 41.4109 62.7433 40.2936 68.6628 35.1613C71.0273 33.1112 70.1015 30.1587 66.9406 29.9514z"/>
<path style="fill:#f9bd27; stroke:none;" d="M57 55C52.8407 69.4826 70.1219 82.7574 60 97L63 98L64 95L65 95C63.9589 101.9 65.9154 111.133 74 104L74 107L77 107L76 105L79 105L78 107L88 107L88 106L85 106L91 99L91 98L85 100L96 86L93 85L98 78L86 88L96 57L83 58.5741L75.0895 55.8488L67.9606 58.3434L57 55z"/>
<path style="fill:#f9d654; stroke:none;" d="M12 58C12.0084 60.3739 11.4169 64.3125 13.6034 65.9576C18.1928 69.4106 28.1481 65.1198 29 60L12 58M137 67L137 58C133.861 58.0648 122.696 58.0197 121.921 62.159C121.074 66.6829 134.307 66.9444 137 67z"/>
<path style="fill:#f9bd27; stroke:none;" d="M14 59L14 64L16 66L25 64L25 63L21 62L21 61L23 61L23 60L16 63L17 59L14 59M133 59L123 64L129 65L128 63L129 63C131.991 63.0594 133.68 62.2013 133 59M25.6667 61.3333L26.3333 61.6667L25.6667 61.3333M113.333 61.6667L113.667 62.3333L113.333 61.6667z"/>
<path style="fill:#f9d654; stroke:none;" d="M63 64L71 91L73 91L71 97C74.0852 97 72.4499 99.5578 72 102L74 104L78 100L77 100L75 103L78.9475 93.9105L87 64L80 67C76.1811 60.1404 69.4786 66.4694 63 64M126.667 62.3333L127.333 62.6667L126.667 62.3333z"/>
<path style="fill:#f9bd27; stroke:none;" d="M135 63L136 64L135 63M110 64L106 70L113 65L110 64M14 65L15 66L14 65M113 67L114 68L113 67M111 69L100 80L105 80L110 73L95 93C102.206 88.2199 114.067 79.002 111 69M103 74L104 74L106 72L103 74M101 74L98 78L101 74M97 82L96 86L100 82L97 82M46 83L46 89L50 85L46 83M77 86L74 91L77 86M49 92L54 87L49 92M53 94L60 87L53 94z"/>
<path style="fill:#f9d654; stroke:none;" d="M89 87L87 92L92 87L89 87z"/>
<path style="fill:#f9bd27; stroke:none;" d="M53 96L53 100L63 90L53 96M101 90L102 91L101 90M76 92L76 94L78 94L78 92L76 92M99 92L100 93L99 92M90 97L94 93L90 97z"/>
<path style="fill:#f9d654; stroke:none;" d="M39.9367 95.0208C34.2054 95.5705 23.7606 108.691 34.0802 108.379C38.4861 108.246 46.693 94.3729 39.9367 95.0208z"/>
<path style="fill:#f9bd27; stroke:none;" d="M97 94L92 100L99 94L97 94z"/>
<path style="fill:#f9d654; stroke:none;" d="M109.361 95.3056C104.785 97.2771 112.862 110.376 117.981 107.914C126.378 103.873 114.289 93.1824 109.361 95.3056z"/>
<path style="fill:#f9bd27; stroke:none;" d="M51.3333 95.6667L51.6667 96.3333L51.3333 95.6667M74.6667 95.3333L75.3333 95.6667L74.6667 95.3333M38 96L36 98L36 99L40 97L38 96M41 97L42 98L41 97M110 101L114 97L110 101M40 99L41 100L40 99M30 104L36 107L38 104C35.0336 100.571 32.9664 100.571 30 104M55 100L54 105L59 103L58 105L59 105L64 100L59 103L58 100L55 100M116 100L117 101L116 100z"/>
<path style="fill:#f9d654; stroke:none;" d="M34 101L33 102L36 104L34 101z"/>
<path style="fill:#f9bd27; stroke:none;" d="M39 101L40 102L39 101M113 101L114 105L115 101L113 101M87 105L95 105L92 102L87 105M120 102L116 104L115 106L115 107L120 102z"/>
<path style="fill:#f9d654; stroke:none;" d="M31 103L32 104L31 103M73 104L72 107L75 105L73 104M76 105L77 107L78 107L79 105L76 105z"/>
<path style="fill:#f9bd27; stroke:none;" d="M56.6667 106.333L57.3333 106.667L56.6667 106.333z"/>
<path style="fill:#8998a6; stroke:none;" d="M54 127C46.1526 131.344 55.3569 139.052 61 140L67 144L68 141L63 140L63 139L71 140L69 142L69 143L75 142L75 141L66 138L66 137L74 135L75 135L76 135L80 136L81 139L78 142L83 139L81 136L88 137L81 142L85 144L87 141L86 143L87 143C91.3168 140.945 104.272 132.787 97 128C98.2788 124.368 101.557 110.782 98.2531 108.028C93.5324 104.092 78.8239 106.927 73 106.996C68.0102 107.055 55.3067 104.696 51.6219 108.603C47.7355 112.724 50.8544 123.554 54 127z"/>
<path style="fill:#f9bd27; stroke:none;" d="M91 106L92 107L91 106z"/>
<path style="fill:#f9d654; stroke:none;" d="M99 108L100 109L99 108z"/>
<path style="fill:#687279; stroke:none;" d="M54 115L53 117L55 117L54 115M56 115L57 116L56 115M58 116L58 117L62 116L58 116M63 116L63 117L68 116L63 116M69 116L69 117L73 115L69 116M75.3333 115.667L75.6667 116.333L75.3333 115.667M78 115L78 117L80 115L78 115M81 116L81 117L85 116L81 116M87 116L87 117L96 115L87 116z"/>
<path style="fill:#f9d654; stroke:none;" d="M99 122L100 123L99 122M50 123L51 124L50 123M51 124L52 125L51 124z"/>
<path style="fill:#687279; stroke:none;" d="M52 125L52 127L54 127L52 125M55 127L58 126L55 127M60 127L64 126L60 127M65 125L65 126L71 126L65 125M72.3333 125.667L72.6667 126.333L72.3333 125.667M75.3333 125.667L75.6667 126.333L75.3333 125.667M78 125L87 127L78 125M88 126L88 127L96 127L88 126M74 135L66 137L66 138L75 141L75 142L69 143L69 142L71 140L63 139L63 140L68 141C57.8512 153.001 92.9426 149.9 81 142L88 137L81 136L83 139L78 142L81 139L81 138L80 136L76 135L74 135M80 135L81 136L80 135M87 135L88 136L87 135M92 135L93 137L92 137L90 136L89 136L88 138L89 140L87 140L87 141L93 139L94 135L92 135z"/>
<path style="fill:#f9d654; stroke:none;" d="M96 135L97 136L96 135z"/>
<path style="fill:#687279; stroke:none;" d="M56 136L56 137L63 139L64 137L56 136M70.6667 136.333L71.3333 136.667L70.6667 136.333M58 138L60 140L58 138z"/>
<path style="fill:#8998a6; stroke:none;" d="M73 139L73 140L77 139L73 139z"/>
<path style="fill:#687279; stroke:none;" d="M60 140L61 141L60 140M62 140L62 141L66 142L66 141L62 140z"/>
<path style="fill:#f9d654; stroke:none;" d="M91 140L92 141L91 140M60 141L61 142L60 141z"/>
<path style="fill:#687279; stroke:none;" d="M84 143L87 141L84 143z"/>
<path style="fill:#8998a6; stroke:none;" d="M67 146L68 147L67 146z"/>
<path style="fill:#f9d654; stroke:none;" d="M83 146L84 147L83 146z"/>
<path style="fill:#8998a6; stroke:none;" d="M82 147L83 148L82 147M80 148L81 149L80 148M72.6667 149.333L73.3333 149.667L72.6667 149.333M76 149L76 150L79 150L76 149z"/>
</svg>
