<?xml version="1.0" standalone="yes"?>
<svg xmlns="http://www.w3.org/2000/svg" width="256" height="256">
<path style="fill:#ffffff; stroke:none;" d="M0 0L0 12L1 12C3.47953 6.3783 7.11395 2.87971 13 1L0 0z"/>
<path style="fill:#4294cb; stroke:none;" d="M160 133C151.891 121.487 134.749 111.227 131.53 97C128.309 82.7637 145.036 69.8215 158 76.4529C178.138 86.7538 190.505 111.972 209 125C213.83 115.786 212 104.128 212 94L212 31C212 20.5489 214.141 7.64909 202.996 2C193.774 -2.67468 179.106 0 169 0L91 0L32 0C23.5733 0 13.2266 -1.7153 6.10494 3.80014C-2.28081 10.2946 0 22.691 0 32L0 101C0 109.986 -2.14239 121.818 5.21296 128.61C10.9778 133.932 18.7745 133 26 133L72 133L160 133z"/>
<path style="fill:#ffffff; stroke:none;" d="M199 0L199 1C220.899 7.99347 205.792 29.5284 213.028 44C223.519 64.9824 251.136 73.2183 255 99L256 99L256 0L199 0z"/>
<path style="fill:#b6a59b; stroke:none;" d="M22 18L23 19L22 18z"/>
<path style="fill:#f59365; stroke:none;" d="M23.0193 18.7423C15.915 21.5789 15.4305 44.27 19.6034 49.8519C23.4701 55.0241 42.3405 54.5728 47.9452 52.2577C55.2359 49.2462 55.3534 26.8905 51.142 21.2785C47.1699 15.9856 28.7034 16.4727 23.0193 18.7423z"/>
<path style="fill:#b6a59b; stroke:none;" d="M47.6667 18.3333L48.3333 18.6667L47.6667 18.3333M20 19L21 20L20 19z"/>
<path style="fill:#859b34; stroke:none;" d="M50 19L51 20L50 19z"/>
<path style="fill:#b6a59b; stroke:none;" d="M19 20L20 21L19 20M52.3333 22.6667L52.6667 23.3333L52.3333 22.6667z"/>
<path style="fill:#859b34; stroke:none;" d="M17 25L17 31L18 31L17 25z"/>
<path style="fill:#b6a59b; stroke:none;" d="M17 31L17 40L18 40L17 31z"/>
<path style="fill:#859b34; stroke:none;" d="M17 40L17 46L18 46L17 40z"/>
<path style="fill:#f59365; stroke:none;" d="M212 44L220.576 68L222.762 77.6065L212 83L210 125C191.608 112.044 178.783 85.5404 158 76.5332C143.143 70.0946 128.325 83.7301 132.355 99C135.79 112.016 151.708 122.818 160 133C135.732 133 107.886 129.171 84 133.329C64.9855 136.638 44.9988 148.019 27 155C28.9252 166.188 34.9142 185.867 47 189.362C58.7126 192.748 73.3642 183.976 84 179.797C112.802 168.481 142.973 159.11 171 146C164.223 162.523 161.518 178.656 167.356 196C168.888 200.554 171.666 209.224 176.379 211.397C182.351 214.149 193.473 212 200 212L256 212L256 133C256 120.258 258.234 105.163 253.91 93C247.3 74.4028 227.888 55.1918 212 44z"/>
<path style="fill:#b6a59b; stroke:none;" d="M52.3333 47.6667L52.6667 48.3333L52.3333 47.6667z"/>
<path style="fill:#859b34; stroke:none;" d="M212 47L212 83C215.299 82.4319 221.993 81.2824 223.292 77.6065C225.423 71.5794 215.71 51.9077 212 47z"/>
<path style="fill:#b6a59b; stroke:none;" d="M18 49L19 50L18 49M19 50L20 51L19 50M51 50L52 51L51 50M20 51L21 52L20 51M50 51L51 52L50 51M21 52L22 53L21 52M48 52L49 53L48 52M148 74L148 75L152 75L148 74M144 75L145 76L144 75M155.667 75.3333L156.333 75.6667L155.667 75.3333M141 76L142 77L141 76M158 76L159 77L158 76M140 77L141 78L140 77M160 77L161 78L160 77M138 78L139 79L138 78M161 78L162 79L161 78M137 79L138 80L137 79M136 80L137 81L136 80M135 81L136 82L135 81M134 82L135 83L134 82M133 84L134 85L133 84M132 86L133 87L132 86M131 89L131 92L132 92L131 89M131 94L131 98L132 98L131 94M132 100L133 101L132 100M133 102L134 103L133 102M134 104L135 105L134 104M135 105L136 106L135 105M140 111L141 112L140 111M141 112L142 113L141 112M142 113L143 114L142 113M143 114L144 115L143 114M144 115L145 116L144 115M145 116L146 117L145 116M146 117L147 118L146 117z"/>
<path style="fill:#859b34; stroke:none;" d="M211 119L212 120L211 119z"/>
<path style="fill:#ffffff; stroke:none;" d="M0 121L0 256L176 256C176 242.454 177.874 227.379 175.786 214C174.547 206.057 168.278 198.952 166.155 191C161.696 174.299 166.474 161.832 171 146C140.274 156.395 110.384 169.585 80 180.95C69.4011 184.914 55.1332 194.038 44.0039 187.633C28.5761 178.753 27.4014 150.688 19.2106 136.148C17.1332 132.46 12.4102 132.597 9.00386 130.633C4.902 128.267 2.92849 124.48 0 121z"/>
<path style="fill:#859b34; stroke:none;" d="M210 122L211 123L210 122z"/>
<path style="fill:#b6a59b; stroke:none;" d="M151 123L152 124L151 123M152 124L153 125L152 124z"/>
<path style="fill:#859b34; stroke:none;" d="M209 124L210 125L209 124z"/>
<path style="fill:#b6a59b; stroke:none;" d="M153 125L154 126L153 125M154 126L155 127L154 126M155 127L156 128L155 127M156 128L157 129L156 128M157 129L158 130L157 129z"/>
<path style="fill:#859b34; stroke:none;" d="M18 133L26 155L83 134L62 133L18 133z"/>
<path style="fill:#b6a59b; stroke:none;" d="M176 212L176 213L234 213L215 212L176 212z"/>
<path style="fill:#859b34; stroke:none;" d="M176 213L176 256L256 256L256 212L176 213z"/>
</svg>
