<?xml version="1.0" standalone="yes"?>
<svg xmlns="http://www.w3.org/2000/svg" width="256" height="256">
<path style="fill:#010101; stroke:none;" d="M0 0L0 256L256 256L256 0L0 0z"/>
<path style="fill:#6a0988; stroke:none;" d="M78 192L78 203C70.1296 203 55.5218 200.189 49.1088 205.434C44.9731 208.816 41.2489 226.634 48.1481 228.682C58.9412 231.886 74.7268 229 86 229L169 229L198 229C201.122 229 206.779 230.046 209.397 227.972C212.064 225.86 211.015 219.973 210.999 217C210.903 198.688 191.04 203 178 203L178 192L230 192C236.479 192 245.673 193.666 250.772 188.721C257.38 182.312 254 164.538 254 156L254 65C254 56.0972 257.837 35.623 249.891 29.7029C244.714 25.8459 237.051 27 231 27L187 27C129.896 27 72.0271 24.2424 15 27.0401C-2.36333 27.892 2 47.6703 2 60L2 149C2 158.989 -1.47278 177.036 3.17901 185.981C6.99632 193.323 16.0884 192 23 192L78 192z"/>
<path style="fill:#dc4192; stroke:none;" d="M9 32L10 33L9 32z"/>
<path style="fill:#f3edec; stroke:none;" d="M10.1088 33.0278C2.32215 37.4109 6 58.3246 6 66L6 155C6 162.387 2.72445 180.376 9.2284 185.397C13.0817 188.371 20.4231 187 25 187L64 187L195 187L230 187C234.689 187 241.65 188.247 245.867 185.821C253.641 181.347 250 160.686 250 153L250 64C250 56.6082 253.238 38.8205 246.721 33.7423C242.814 30.6972 235.638 32 231 32L192 32L61 32L25 32C20.6253 32 14.0527 30.8077 10.1088 33.0278z"/>
<path style="fill:#c5b74d; stroke:none;" d="M245 32L246 33L245 32M8 33L9 34L8 33z"/>
<path style="fill:#dc4192; stroke:none;" d="M247 33L248 34L247 33z"/>
<path style="fill:#c5b74d; stroke:none;" d="M7 34L8 35L7 34z"/>
<path style="fill:#dc4192; stroke:none;" d="M248 34L249 35L248 34z"/>
<path style="fill:#c5b74d; stroke:none;" d="M6 36L7 37L6 36M249.333 36.6667L249.667 37.3333L249.333 36.6667M10 51L11 52L10 51z"/>
<path style="fill:#6a0988; stroke:none;" d="M11 51L11 67L13 67L13 51L11 51z"/>
<path style="fill:#c5b74d; stroke:none;" d="M13 51L14 52L13 51M69 61L69 62L73 62L69 61z"/>
<path style="fill:#dc4192; stroke:none;" d="M73 61L74 62L73 61z"/>
<path style="fill:#c5b74d; stroke:none;" d="M74 61L74 62L78 62L74 61M117 61L117 62L120 62L117 61z"/>
<path style="fill:#dc4192; stroke:none;" d="M120 61L120 62L123 62L120 61z"/>
<path style="fill:#c5b74d; stroke:none;" d="M123 61L123 62L126 62L123 61M204 61L204 62L209 62L204 61z"/>
<path style="fill:#dc4192; stroke:none;" d="M63.6667 62.3333L64.3333 62.6667L63.6667 62.3333z"/>
<path style="fill:#6a0988; stroke:none;" d="M65 62.439C25.7992 68.6121 9.56827 120.059 38.1705 147.711C50.0225 159.169 66.0558 162.945 82 160.841C87.1836 160.157 92.8376 156.619 98 157.013C108.077 157.782 116.271 163.237 127 161.561C168.222 155.123 187.746 103.309 154.996 74.1844C143.862 64.2826 128.664 60.1308 114 62.439C108.602 63.2887 102.326 67.3456 97 66.973C85.7831 66.1883 77.1526 60.5254 65 62.439z"/>
<path style="fill:#dc4192; stroke:none;" d="M82.6667 62.3333L83.3333 62.6667L82.6667 62.3333z"/>
<path style="fill:#c5b74d; stroke:none;" d="M111.667 62.3333L112.333 62.6667L111.667 62.3333z"/>
<path style="fill:#dc4192; stroke:none;" d="M113 62L114 63L113 62M131 62L132 63L131 62z"/>
<path style="fill:#c5b74d; stroke:none;" d="M132 62L133 63L132 62M199 62L200 63L199 62z"/>
<path style="fill:#dc4192; stroke:none;" d="M200 62L201 63L200 62z"/>
<path style="fill:#6a0988; stroke:none;" d="M193 109L193 110C189.581 110.003 185.072 109.388 182.603 112.318C179.636 115.84 181.082 122.759 181.139 127C181.273 137.101 175.696 161.536 190 161.985C199.646 162.287 209.348 162.004 219 162C222.667 161.999 227.702 162.667 230.397 159.566C232.882 156.706 232.036 151.493 231.95 148C231.736 139.356 235.773 119.629 230.821 112.434C228.744 109.416 224.18 110.009 221 110C225.651 105.31 230.238 100.729 231.532 94C232.438 89.2848 232.458 83.5671 230.892 79C229.516 74.9875 227.071 71.1602 223.907 68.3295C195.982 43.3527 161.408 94.2253 193 109z"/>
<path style="fill:#dc4192; stroke:none;" d="M212 62L213 63L212 62z"/>
<path style="fill:#c5b74d; stroke:none;" d="M213 62L214 63L213 62z"/>
<path style="fill:#dc4192; stroke:none;" d="M59 63L60 64L59 63M87 63L88 64L87 63z"/>
<path style="fill:#c5b74d; stroke:none;" d="M107 63L108 64L107 63z"/>
<path style="fill:#dc4192; stroke:none;" d="M108 63L109 64L108 63M135 63L136 64L135 63z"/>
<path style="fill:#c5b74d; stroke:none;" d="M196 63L197 64L196 63z"/>
<path style="fill:#dc4192; stroke:none;" d="M197 63L198 64L197 63M215 63L216 64L215 63z"/>
<path style="fill:#c5b74d; stroke:none;" d="M216 63L217 64L216 63z"/>
<path style="fill:#dc4192; stroke:none;" d="M56 64L57 65L56 64M90 64L91 65L90 64z"/>
<path style="fill:#c5b74d; stroke:none;" d="M104 64L105 65L104 64z"/>
<path style="fill:#dc4192; stroke:none;" d="M105 64L106 65L105 64M138 64L139 65L138 64z"/>
<path style="fill:#c5b74d; stroke:none;" d="M194 64L195 65L194 64M218 64L219 65L218 64z"/>
<path style="fill:#dc4192; stroke:none;" d="M54 65L55 66L54 65M92 65L93 66L92 65M102 65L103 66L102 65z"/>
<path style="fill:#c5b74d; stroke:none;" d="M141 65L142 66L141 65z"/>
<path style="fill:#dc4192; stroke:none;" d="M205 65L205 66L208 66L205 65z"/>
<path style="fill:#c5b74d; stroke:none;" d="M220 65L221 66L220 65M10 66L11 67L10 66M13 66L14 67L13 66M51 66L52 67L51 66z"/>
<path style="fill:#dc4192; stroke:none;" d="M52 66L53 67L52 66M66 66L67 67L66 66z"/>
<path style="fill:#c5b74d; stroke:none;" d="M62 67L62 68C70.9664 73.5332 76.4154 76.8272 84 67L62 67z"/>
<path style="fill:#dc4192; stroke:none;" d="M80 66L81 67L80 66M94 66L95 67L94 66M100 66L101 67L100 66M102 70C111.553 81.8472 122.279 90.4573 123 107L131.833 97L125.155 86L115 66L102 70M119 66C122.594 76.5556 128.302 85.9507 136 94C140.025 91.1648 150.793 83.4963 150.793 78.0934C150.793 74.9935 146.285 72.784 144 71.5146C136.146 67.1509 127.829 66.001 119 66M143 66L144 67L143 66M191 66L192 67L191 66M200 66L201 67L200 66z"/>
<path style="fill:#c5b74d; stroke:none;" d="M196 68L197 70L193 70L193 71L195 70L195 71C183.399 85.1191 191.558 92.6269 195 107C198.331 106.334 206.724 111.425 214 109C229.952 103.683 233.883 78.9223 219 69C211.068 63.7123 200.385 69.0961 196 68z"/>
<path style="fill:#dc4192; stroke:none;" d="M212 66L213 67L212 66M221 66L222 67L221 66z"/>
<path style="fill:#c5b74d; stroke:none;" d="M49 67L50 68L49 67z"/>
<path style="fill:#dc4192; stroke:none;" d="M84 67L85 68L84 67M96 67L97 68L96 67z"/>
<path style="fill:#c5b74d; stroke:none;" d="M97 67L98 68L97 67z"/>
<path style="fill:#dc4192; stroke:none;" d="M98 67L99 68L98 67z"/>
<path style="fill:#c5b74d; stroke:none;" d="M145 67L146 68L145 67z"/>
<path style="fill:#dc4192; stroke:none;" d="M190 67L191 68L190 67M197 67L198 68L197 67M215 67L216 68L215 67M48 68L49 69L48 68M63 68L64 69L63 68z"/>
<path style="fill:#c5b74d; stroke:none;" d="M147 68L148 69L147 68z"/>
<path style="fill:#dc4192; stroke:none;" d="M195 68L196 69L195 68z"/>
<path style="fill:#f3edec; stroke:none;" d="M197 68L198 69L197 68z"/>
<path style="fill:#dc4192; stroke:none;" d="M217 68L218 69L217 68z"/>
<path style="fill:#c5b74d; stroke:none;" d="M224 68L225 69L224 68M46 69L47 70L46 69M55 69L56 71L53 70L54 72L51 71L39 85C39.7182 88.8121 39.6718 94.3621 41.9884 97.5818C52.6801 112.441 84.1505 88.0076 63.9992 73.581C61.1115 71.5137 58.4578 69.844 55 69z"/>
<path style="fill:#f3edec; stroke:none;" d="M56 69L57 70L56 69z"/>
<path style="fill:#c5b74d; stroke:none;" d="M89 69.9591C66.7909 76.4682 78.8003 106.987 97 101.888C115.981 96.5704 105.805 65.0338 89 69.9591z"/>
<path style="fill:#dc4192; stroke:none;" d="M148 69L149 70L148 69z"/>
<path style="fill:#f3edec; stroke:none;" d="M195.667 69.3333L196.333 69.6667L195.667 69.3333z"/>
<path style="fill:#c5b74d; stroke:none;" d="M225 69L226 70L225 69z"/>
<path style="fill:#dc4192; stroke:none;" d="M52 70L53 71L52 70z"/>
<path style="fill:#f3edec; stroke:none;" d="M54.6667 70.3333L55.3333 70.6667L54.6667 70.3333z"/>
<path style="fill:#dc4192; stroke:none;" d="M59 70L60 71L59 70M87 70L88 71L87 70z"/>
<path style="fill:#c5b74d; stroke:none;" d="M150 70L151 71L150 70z"/>
<path style="fill:#dc4192; stroke:none;" d="M192 70L189 74L192 70z"/>
<path style="fill:#f3edec; stroke:none;" d="M194 70C182.776 79.3755 181.12 99.041 196 106C191.783 99.1603 186.825 92.5449 188.684 84C189.722 79.2318 194.255 74.6762 194 70z"/>
<path style="fill:#dc4192; stroke:none;" d="M220 70L221 71L220 70z"/>
<path style="fill:#c5b74d; stroke:none;" d="M43 71L44 72L43 71z"/>
<path style="fill:#f3edec; stroke:none;" d="M52.6667 71.3333L53.3333 71.6667L52.6667 71.3333z"/>
<path style="fill:#dc4192; stroke:none;" d="M151 71L152 72L151 71M205 72L205 73L208 74L209 74L208 71L205 72M221 71L222 72L221 71M42 72L43 73L42 72z"/>
<path style="fill:#c5b74d; stroke:none;" d="M49 72L48 74L49 72z"/>
<path style="fill:#f3edec; stroke:none;" d="M39 85L52 72C46.027 74.2976 40.0283 78.3544 39 85z"/>
<path style="fill:#dc4192; stroke:none;" d="M62 72L63 73L62 72M84 72L85 73L84 72M97 72L98 73L97 72M185 72L186 73L185 72z"/>
<path style="fill:#6a0988; stroke:none;" d="M206 96L197 94L207 104C209.293 101.412 213.223 99.5884 214.972 96.7261C219.411 89.4606 208.233 85.1571 208 78L215 79L208 72C206.283 72.5775 204.607 73.1289 202.995 73.9792C190.782 80.4187 205.743 88.1118 206 96z"/>
<path style="fill:#dc4192; stroke:none;" d="M222 72L223 73L222 72M227 72L228 73L227 72M47 73L48 74L47 73M63 73L64 74L63 73M70 73L71 74L70 73M76 73L77 74L76 73M83 73L84 74L83 73z"/>
<path style="fill:#c5b74d; stroke:none;" d="M184 73L185 74L184 73z"/>
<path style="fill:#dc4192; stroke:none;" d="M223 73L224 74L223 73z"/>
<path style="fill:#c5b74d; stroke:none;" d="M228 73L229 74L228 73M46 74L47 75L46 74z"/>
<path style="fill:#dc4192; stroke:none;" d="M100 74L101 75L100 74z"/>
<path style="fill:#c5b74d; stroke:none;" d="M155 74L156 75L155 74M189 74L190 75L189 74z"/>
<path style="fill:#dc4192; stroke:none;" d="M211 74L212 75L211 74z"/>
<path style="fill:#c5b74d; stroke:none;" d="M45 75L46 76L45 75z"/>
<path style="fill:#dc4192; stroke:none;" d="M66 75L67 76L66 75M73 75L74 76L73 75M80 75L81 76L80 75z"/>
<path style="fill:#c5b74d; stroke:none;" d="M156 75L157 76L156 75M183 75L184 76L183 75M188 75L189 76L188 75z"/>
<path style="fill:#dc4192; stroke:none;" d="M229 75L230 76L229 75M43 76L44 77L43 76z"/>
<path style="fill:#c5b74d; stroke:none;" d="M44 76L45 77L44 76M157 76L158 77L157 76z"/>
<path style="fill:#dc4192; stroke:none;" d="M187 76L188 77L187 76M225 76L226 77L225 76M42 77L43 78L42 77M104 77L105 78L104 77z"/>
<path style="fill:#c5b74d; stroke:none;" d="M158 77L159 78L158 77M182 77L183 78L182 77M187 77L188 78L187 77z"/>
<path style="fill:#dc4192; stroke:none;" d="M204 77L205 84L206 84L204 77M215.333 77.6667L215.667 78.3333L215.333 77.6667M230 77L231 78L230 77M41 78L42 79L41 78M70 78L71 79L70 78M76 78L77 79L76 78M105 78L106 79L105 78z"/>
<path style="fill:#c5b74d; stroke:none;" d="M159 78L160 79L159 78z"/>
<path style="fill:#dc4192; stroke:none;" d="M186 78L187 79L186 78z"/>
<path style="fill:#c5b74d; stroke:none;" d="M203 78L205 84L205 78L203 78z"/>
<path style="fill:#dc4192; stroke:none;" d="M208 78L208 85L209 85L208 78M210 78L211 79L210 78M226 78L227 79L226 78M40 79L41 80L40 79M71 79L71 91L72 91L71 79M75 79L75 91L76 91L75 79M106 79L107 80L106 79z"/>
<path style="fill:#c5b74d; stroke:none;" d="M186 79L187 80L186 79z"/>
<path style="fill:#dc4192; stroke:none;" d="M197 79L197 83L198 83L197 79M212 79L212 80L215 80L212 79z"/>
<path style="fill:#c5b74d; stroke:none;" d="M231 79L232 80L231 79z"/>
<path style="fill:#dc4192; stroke:none;" d="M39 80L40 81L39 80M107 80L108 81L107 80z"/>
<path style="fill:#c5b74d; stroke:none;" d="M181 80L182 81L181 80z"/>
<path style="fill:#dc4192; stroke:none;" d="M185 80L186 81L185 80M227 80L228 81L227 80M231 80L232 81L231 80M33 81L34 82L33 81M155 81C151.452 84.5484 141.207 91.6219 141.207 96.9853C141.207 105.222 160.735 111.958 167 114C167 102.05 164.824 89.0028 155 81M161 81L162 82L161 81M181 81L182 82L181 81z"/>
<path style="fill:#c5b74d; stroke:none;" d="M185.333 81.6667L185.667 82.3333L185.333 81.6667M32 82L33 83L32 82z"/>
<path style="fill:#dc4192; stroke:none;" d="M38 82L39 83L38 82z"/>
<path style="fill:#c5b74d; stroke:none;" d="M162 82L163 83L162 82z"/>
<path style="fill:#dc4192; stroke:none;" d="M202 82L203 83L202 82M203 83L204 84L203 83z"/>
<path style="fill:#c5b74d; stroke:none;" d="M232.333 83.6667L232.667 84.3333L232.333 83.6667M180 84L180 91L181 91L180 84z"/>
<path style="fill:#dc4192; stroke:none;" d="M228 84L228 92L229 92L228 84z"/>
<path style="fill:#c5b74d; stroke:none;" d="M30 85L31 86L30 85M164 85L165 86L164 85z"/>
<path style="fill:#dc4192; stroke:none;" d="M184 85L184 91L185 91L184 85M209 85L210 86L209 85M232 85L232 91L233 91L232 85M212 86L213 87L212 86M29 87L30 88L29 87M34 87L36 89L36 87L34 87M39.3333 87.6667L39.6667 88.3333L39.3333 87.6667M107.333 87.6667L107.667 88.3333L107.333 87.6667M111.333 87.6667L111.667 88.3333L111.333 87.6667M165 87L166 88L165 87M201 87L202 88L201 87z"/>
<path style="fill:#c5b74d; stroke:none;" d="M34 88L29 103C35.9439 100.079 39.17 94.7199 34 88M112 88C109.543 95.7702 110.224 99.7287 118 103L112 88z"/>
<path style="fill:#dc4192; stroke:none;" d="M204 88L205 89L204 88M28 89L29 90L28 89M166 89L167 90L166 89M205 89L205 96L206 96L205 89M208 90L209 97L210 97L208 90z"/>
<path style="fill:#c5b74d; stroke:none;" d="M209 90L209 96C212.06 94.0226 211.88 92.0963 209 90z"/>
<path style="fill:#dc4192; stroke:none;" d="M210 90L211 91L210 90M27 91L28 92L27 91M70 91L71 92L70 91M76 91L77 92L76 91M167 91L168 92L167 91M216 91L216 95L217 95L216 91z"/>
<path style="fill:#c5b74d; stroke:none;" d="M232.333 91.6667L232.667 92.3333L232.333 91.6667M185.333 92.6667L185.667 93.3333L185.333 92.6667M26 93L27 94L26 93z"/>
<path style="fill:#dc4192; stroke:none;" d="M40 93L40 96L41 96L40 93M67 93L68 94L67 93M79 93L80 94L79 93M106.333 93.6667L106.667 94.3333L106.333 93.6667M115 93L116 94L115 93z"/>
<path style="fill:#c5b74d; stroke:none;" d="M168 93L169 94L168 93z"/>
<path style="fill:#dc4192; stroke:none;" d="M198 93L199 94L198 93M36 94L37 95L36 94z"/>
<path style="fill:#c5b74d; stroke:none;" d="M73 94C68.8313 97.3083 64.0703 100.163 60.152 103.749C56.1556 107.407 58.1883 111.56 59.6667 116C62.4754 124.435 74.0902 131.911 83.2971 124.972C90.1388 119.816 90.1555 106.147 83.9954 101.576C80.4059 98.9131 76.8846 96.2133 73 94z"/>
<path style="fill:#dc4192; stroke:none;" d="M80 94L81 95L80 94M110 94L111 95L110 94M181 94L182 95L181 94M185 94L186 95L185 94M200 94L201 95L200 94M227 94L228 95L227 94M231 94L232 95L231 94M30 95L31 96L30 95z"/>
<path style="fill:#c5b74d; stroke:none;" d="M181 95L182 96L181 95z"/>
<path style="fill:#dc4192; stroke:none;" d="M196 95L197 96L196 95M202 95L203 96L202 95z"/>
<path style="fill:#c5b74d; stroke:none;" d="M231 95L232 96L231 95z"/>
<path style="fill:#dc4192; stroke:none;" d="M25 96L26 97L25 96M63 96L64 97L63 96M83 96L84 97L83 96M169 96L170 97L169 96z"/>
<path style="fill:#c5b74d; stroke:none;" d="M186 96L187 97L186 96z"/>
<path style="fill:#dc4192; stroke:none;" d="M182 97L183 98L182 97M226 97L227 98L226 97M29 98L30 99L29 98M41 98L42 99L41 98M67 98L68 99L67 98M79 98L80 99L79 98M105 98L106 99L105 98z"/>
<path style="fill:#c5b74d; stroke:none;" d="M187 98L188 99L187 98z"/>
<path style="fill:#dc4192; stroke:none;" d="M199 98L200 99L199 98z"/>
<path style="fill:#c5b74d; stroke:none;" d="M230 98L231 99L230 98M24 99L25 100L24 99z"/>
<path style="fill:#dc4192; stroke:none;" d="M43 99L44 100L43 99M59 99L60 100L59 99M87 99L88 100L87 99M103 99L104 100L103 99z"/>
<path style="fill:#c5b74d; stroke:none;" d="M170 99L171 100L170 99z"/>
<path style="fill:#dc4192; stroke:none;" d="M183 99L184 100L183 99M201.667 99.3333L202.333 99.6667L201.667 99.3333M211 99L212 100L211 99M24 100L25 101L24 100M46 100L47 101L46 100M100 100L101 101L100 100M136 100L126.207 112L133 121L155 143L156 143C161.703 135.579 166.225 127.48 167 118L136 100M170 100L171 101L170 100M188 100L189 101L188 100M224 100L225 101L224 100z"/>
<path style="fill:#c5b74d; stroke:none;" d="M229 100L230 101L229 100z"/>
<path style="fill:#dc4192; stroke:none;" d="M48 101L49 102L48 101M56 101L57 102L56 101M63 101L64 102L63 101M83 101L84 102L83 101M90 101L91 102L90 101M184 101L185 102L184 101z"/>
<path style="fill:#c5b74d; stroke:none;" d="M189 101L190 102L189 101z"/>
<path style="fill:#dc4192; stroke:none;" d="M205 101L205 104L206 104L205 101M208.333 101.667L208.667 102.333L208.333 101.667M228 101L229 102L228 101M28 102L29 103L28 102M30 102L31 103L30 102M39.6667 102.333L40.3333 102.667L39.6667 102.333M51 102L52 103L51 102M95 102L96 103L95 102M106.667 102.333L107.333 102.667L106.667 102.333z"/>
<path style="fill:#c5b74d; stroke:none;" d="M190 102L191 103L190 102M31 106L34.348 126L36 135C62.0557 146.24 64.4726 107.193 42 103.394C38.0133 102.72 34.5821 104.541 31 106z"/>
<path style="fill:#dc4192; stroke:none;" d="M43 103L44 104L43 103M60 103L61 104L60 103M103 103L104 104L103 103z"/>
<path style="fill:#c5b74d; stroke:none;" d="M104 103.613C91.3796 106.63 80.672 130.524 97 136.686C100.383 137.963 105.606 136.554 108.995 135.695C123.241 132.088 123.769 98.8862 104 103.613M185 103L186 104L185 103M191 103L192 104L191 103M227 103L228 104L227 103M23.3333 104.667L23.6667 105.333L23.3333 104.667z"/>
<path style="fill:#dc4192; stroke:none;" d="M45 104L46 105L45 104M101 104L102 105L101 104z"/>
<path style="fill:#c5b74d; stroke:none;" d="M171 104L172 105L171 104M186 104L187 105L186 104M192 104L193 105L192 104z"/>
<path style="fill:#dc4192; stroke:none;" d="M226 104L227 105L226 104M48 105L49 106L48 105M98 105L99 106L98 105M171 105L171 108L172 108L171 105M187 105L188 106L187 105M193 105L194 106L193 105M219 105L220 106L219 105M225 105L226 106L225 105M23 106L23 116L24 116L23 106M51 106L52 107L51 106M95 106L96 107L95 106M188 106L189 107L188 106M194 106L195 107L194 106z"/>
<path style="fill:#f3edec; stroke:none;" d="M196 106L197 107L196 106z"/>
<path style="fill:#dc4192; stroke:none;" d="M218 106L219 107L218 106M224 106L225 107L224 106z"/>
<path style="fill:#c5b74d; stroke:none;" d="M29 107L30 108L29 107z"/>
<path style="fill:#f3edec; stroke:none;" d="M38 135L32 107C22.7973 110.699 29.3473 133.592 38 135z"/>
<path style="fill:#dc4192; stroke:none;" d="M117 107L118 108L117 107z"/>
<path style="fill:#c5b74d; stroke:none;" d="M189 107L190 108L189 107z"/>
<path style="fill:#dc4192; stroke:none;" d="M196 107L197 108L196 107M216 107L217 108L216 107M223 107L224 108L223 107M27 108L28 109L27 108M89 108L90 109L89 108z"/>
<path style="fill:#c5b74d; stroke:none;" d="M190 108L191 109L190 108z"/>
<path style="fill:#dc4192; stroke:none;" d="M198 108L199 109L198 108M214 108L215 109L214 108z"/>
<path style="fill:#c5b74d; stroke:none;" d="M222 108L223 109L222 108M27 109L27 115L28 115L27 109z"/>
<path style="fill:#dc4192; stroke:none;" d="M53 109L54 110L53 109M93 109L94 110L93 109M119 109L119 117L120 117L119 109z"/>
<path style="fill:#c5b74d; stroke:none;" d="M191 109L192 110L191 109z"/>
<path style="fill:#dc4192; stroke:none;" d="M192 109L193 110L192 109M202.667 109.333L203.333 109.667L202.667 109.333M210 109L211 110L210 109z"/>
<path style="fill:#c5b74d; stroke:none;" d="M221 109L222 110L221 109M183 110L184 111L183 110M229 110L230 111L229 110z"/>
<path style="fill:#dc4192; stroke:none;" d="M88 111L89 112L88 111M182 111L183 112L182 111M54 112L55 113L54 112M92 112L93 113L92 112M181 112L182 113L181 112M231 112L232 113L231 112z"/>
<path style="fill:#c5b74d; stroke:none;" d="M232 113L233 114L232 113z"/>
<path style="fill:#dc4192; stroke:none;" d="M87 114L88 115L87 114z"/>
<path style="fill:#c5b74d; stroke:none;" d="M180.333 114.667L180.667 115.333L180.333 114.667M185 114L186 115L185 114z"/>
<path style="fill:#f3edec; stroke:none;" d="M185 125L189 125L190 114C184.043 114.994 185.001 119.977 185 125z"/>
<path style="fill:#c5b74d; stroke:none;" d="M189 125L185 125L185 126L215 126L226.397 124.972L228 114L201 114L190.603 115.028L189 125z"/>
<path style="fill:#dc4192; stroke:none;" d="M232 114L232 125L233 125L232 114M27 115L27 118L28 118L27 115M55 115L56 116L55 115M91 115L92 116L91 115M184 115L184 125L185 125L184 115M228 115L228 125L229 125L228 115z"/>
<path style="fill:#c5b74d; stroke:none;" d="M23.3333 116.667L23.6667 117.333L23.3333 116.667z"/>
<path style="fill:#dc4192; stroke:none;" d="M171.333 116.667L171.667 117.333L171.333 116.667M180 116L180 124L181 124L180 116M86 117L87 118L86 117M123 117C122.486 123.289 118.032 129.894 118.46 136C118.692 139.307 120.993 142.215 122.572 145C124.297 148.045 125.534 153.98 128.51 155.958C134.597 160.001 147.34 150.309 152 147C148.597 136.989 132.512 121.436 123 117M56 118L57 119L56 118M90 118L91 119L90 118z"/>
<path style="fill:#c5b74d; stroke:none;" d="M28.3333 120.667L28.6667 121.333L28.3333 120.667z"/>
<path style="fill:#dc4192; stroke:none;" d="M24.3333 121.667L24.6667 122.333L24.3333 121.667M57 121L58 122L57 121M89 121L90 122L89 121M118.333 121.667L118.667 122.333L118.333 121.667M170.333 121.667L170.667 122.333L170.333 121.667M28 122L29 123L28 122z"/>
<path style="fill:#c5b74d; stroke:none;" d="M24 123L25 124L24 123M170 123L171 124L170 123M29.3333 124.667L29.6667 125.333L29.3333 124.667z"/>
<path style="fill:#dc4192; stroke:none;" d="M58 124L59 125L58 124M62 124L63 125L62 124M88 124L89 125L88 124z"/>
<path style="fill:#c5b74d; stroke:none;" d="M180.333 124.667L180.667 125.333L180.333 124.667z"/>
<path style="fill:#dc4192; stroke:none;" d="M117 125L118 126L117 125M227 125L228 126L227 125z"/>
<path style="fill:#c5b74d; stroke:none;" d="M232 125L233 126L232 125z"/>
<path style="fill:#dc4192; stroke:none;" d="M25 126L26 127L25 126M29 126L30 127L29 126M169 126L170 127L169 126z"/>
<path style="fill:#c5b74d; stroke:none;" d="M30.3333 127.667L30.6667 128.333L30.3333 127.667M181 127L182 128L181 127z"/>
<path style="fill:#dc4192; stroke:none;" d="M231.333 127.667L231.667 128.333L231.333 127.667M58 128L59 129L58 128M116 128L117 129L116 128M181 128L182 129L181 128z"/>
<path style="fill:#c5b74d; stroke:none;" d="M26 129L27 130L26 129M168 129L169 130L168 129M232 129L233 130L232 129M31 130L32 131L31 130M62.1698 131.028C55.3356 134.806 49.7642 147.695 56.5995 154.146C62.9188 160.11 82.8486 159.329 89.6829 154.697C95.7337 150.595 92.8345 139.329 89.0309 135.019C83.946 129.258 69.2531 127.112 62.1698 131.028z"/>
<path style="fill:#dc4192; stroke:none;" d="M115 130L116 131L115 130z"/>
<path style="fill:#c5b74d; stroke:none;" d="M180.333 130.667L180.667 131.333L180.333 130.667M185 130L186 131L185 130z"/>
<path style="fill:#f3edec; stroke:none;" d="M185 141L189 141L190 130C184.043 130.994 185.001 135.977 185 141z"/>
<path style="fill:#c5b74d; stroke:none;" d="M189 141L185 141L185 142L215 142L226.397 140.972L228 130L201 130L190.603 131.028L189 141z"/>
<path style="fill:#dc4192; stroke:none;" d="M232 130L232 141L233 141L232 130M27 131L28 132L27 131M167 131L168 132L167 131M184 131L184 141L185 141L184 131M228 131L228 141L229 141L228 131z"/>
<path style="fill:#c5b74d; stroke:none;" d="M32 132L33 133L32 132z"/>
<path style="fill:#dc4192; stroke:none;" d="M86 132L87 133L86 132M180 132L180 140L181 140L180 132M28 133L29 134L28 133M32 133L33 134L32 133M59 133L60 134L59 133M87 133L88 134L87 133M166 133L167 134L166 133z"/>
<path style="fill:#c5b74d; stroke:none;" d="M28 134L29 135L28 134M33 134L34 135L33 134z"/>
<path style="fill:#dc4192; stroke:none;" d="M53 134L54 135L53 134M58 134L59 135L58 134M88 134L89 135L88 134M93 134L94 135L93 134M113 134L114 135L113 134z"/>
<path style="fill:#c5b74d; stroke:none;" d="M166 134L167 135L166 134z"/>
<path style="fill:#dc4192; stroke:none;" d="M29 135L30 136L29 135M34.6667 135.333L35.3333 135.667L34.6667 135.333M52 135L53 136L52 135M57 135L58 136L57 135M94 135L95 136L94 135M110.667 135.333L111.333 135.667L110.667 135.333M165 135L166 136L165 135M41.6667 136.333L42.3333 136.667L41.6667 136.333M51 136L52 137L51 136M95 136L96 137L95 136M104.667 136.333L105.333 136.667L104.667 136.333M30 137L31 138L30 137M47.6667 137.333L48.3333 137.667L47.6667 137.333M50 137L51 138L50 137M96 137L97 138L96 137M98.6667 137.333L99.3333 137.667L98.6667 137.333M164 137L165 138L164 137M31 139L32 140L31 139z"/>
<path style="fill:#c5b74d; stroke:none;" d="M163 139L164 140L163 139z"/>
<path style="fill:#dc4192; stroke:none;" d="M37 140L38 141L37 140z"/>
<path style="fill:#c5b74d; stroke:none;" d="M38 140C40.5431 145.408 45.3629 149.13 51 151C48.9005 142.311 46.9099 141.127 38 140z"/>
<path style="fill:#dc4192; stroke:none;" d="M41.6667 140.333L42.3333 140.667L41.6667 140.333M53 140L54 141L53 140M93 140L93 143L94 143L93 140M105 140L106 141L105 140z"/>
<path style="fill:#c5b74d; stroke:none;" d="M96 151C101.604 149.099 105.965 145.026 109 140C100.201 141.118 98.0644 142.461 96 151z"/>
<path style="fill:#dc4192; stroke:none;" d="M115 140L102 154L124 158L115 140M162 140L163 141L162 140z"/>
<path style="fill:#c5b74d; stroke:none;" d="M180.333 140.667L180.667 141.333L180.333 140.667z"/>
<path style="fill:#dc4192; stroke:none;" d="M48 141L49 142L48 141M99 141L100 142L99 141M108 141L109 142L108 141M227 141L228 142L227 141z"/>
<path style="fill:#c5b74d; stroke:none;" d="M232 141L233 142L232 141M33 142L34 143L33 142z"/>
<path style="fill:#dc4192; stroke:none;" d="M49 142L50 143L49 142M53.3333 142.667L53.6667 143.333L53.3333 142.667M97 142L98 143L97 142M107 142L108 143L107 142M34 143L35 144L34 143z"/>
<path style="fill:#c5b74d; stroke:none;" d="M160 143L161 144L160 143M181.333 143.667L181.667 144.333L181.333 143.667z"/>
<path style="fill:#dc4192; stroke:none;" d="M231.333 143.667L231.667 144.333L231.333 143.667M35 144L36 145L35 144M159 144L160 145L159 144M104 145L105 146L104 145M158 145L159 146L158 145M103 146L104 147L103 146M157 146L158 147L157 146z"/>
<path style="fill:#c5b74d; stroke:none;" d="M180.333 146.667L180.667 147.333L180.333 146.667M185 146L186 147L185 146z"/>
<path style="fill:#f3edec; stroke:none;" d="M185 157L189 157L190 146C184.043 146.994 185.001 151.977 185 157z"/>
<path style="fill:#c5b74d; stroke:none;" d="M189 157L185 157L185 158L228 158L228 146L201 146L190.603 147.028L189 157z"/>
<path style="fill:#dc4192; stroke:none;" d="M232 146L232 157L233 157L232 146M44 147L45 148L44 147M156 147L157 148L156 147M184 147L184 157L185 157L184 147M228 147L228 157L229 157L228 147M50.3333 148.667L50.6667 149.333L50.3333 148.667M54.3333 148.667L54.6667 149.333L54.3333 148.667M92.3333 148.667L92.6667 149.333L92.3333 148.667M96.3333 148.667L96.6667 149.333L96.3333 148.667M155 148L156 149L155 148M180 148L180 156L181 156L180 148M40 149L41 150L40 149M154 149L155 150L154 149M41 150L42 151L41 150M48 150L49 151L48 150z"/>
<path style="fill:#c5b74d; stroke:none;" d="M153 150L154 151L153 150M42 151L43 152L42 151z"/>
<path style="fill:#dc4192; stroke:none;" d="M50 151L51 152L50 151M96 151L97 152L96 151z"/>
<path style="fill:#c5b74d; stroke:none;" d="M152 151L153 152L152 151z"/>
<path style="fill:#dc4192; stroke:none;" d="M150 152L151 153L150 152M45 153L46 154L45 153z"/>
<path style="fill:#c5b74d; stroke:none;" d="M149 153L150 154L149 153z"/>
<path style="fill:#dc4192; stroke:none;" d="M147 154L148 155L147 154z"/>
<path style="fill:#c5b74d; stroke:none;" d="M48 155L49 156L48 155z"/>
<path style="fill:#dc4192; stroke:none;" d="M58 155L59 156L58 155M88 155L89 156L88 155z"/>
<path style="fill:#c5b74d; stroke:none;" d="M146 155L147 156L146 155z"/>
<path style="fill:#dc4192; stroke:none;" d="M50 156L51 157L50 156M61.6667 156.333L62.3333 156.667L61.6667 156.333M84.6667 156.333L85.3333 156.667L84.6667 156.333M96 156L97 157L96 156M98 156L99 157L98 156z"/>
<path style="fill:#c5b74d; stroke:none;" d="M144 156L145 157L144 156M180.333 156.667L180.667 157.333L180.333 156.667z"/>
<path style="fill:#dc4192; stroke:none;" d="M52 157L53 158L52 157M66.6667 157.333L67.3333 157.667L66.6667 157.333M78 157L78 158L81 158L78 157z"/>
<path style="fill:#c5b74d; stroke:none;" d="M94 157L95 158L94 157M100 157L101 158L100 157z"/>
<path style="fill:#dc4192; stroke:none;" d="M141 157L142 158L141 157z"/>
<path style="fill:#c5b74d; stroke:none;" d="M142 157L143 158L142 157M232 157L233 158L232 157z"/>
<path style="fill:#dc4192; stroke:none;" d="M55 158L56 159L55 158M91 158L92 159L91 158z"/>
<path style="fill:#c5b74d; stroke:none;" d="M102 158L103 159L102 158z"/>
<path style="fill:#dc4192; stroke:none;" d="M139 158L140 159L139 158z"/>
<path style="fill:#c5b74d; stroke:none;" d="M140 158L141 159L140 158M57 159L58 160L57 159z"/>
<path style="fill:#dc4192; stroke:none;" d="M58 159L59 160L58 159M88 159L89 160L88 159z"/>
<path style="fill:#c5b74d; stroke:none;" d="M89 159L90 160L89 159M105 159L106 160L105 159z"/>
<path style="fill:#dc4192; stroke:none;" d="M136 159L137 160L136 159z"/>
<path style="fill:#c5b74d; stroke:none;" d="M137 159L138 160L137 159M181 159L182 160L181 159z"/>
<path style="fill:#dc4192; stroke:none;" d="M231 159L232 160L231 159z"/>
<path style="fill:#c5b74d; stroke:none;" d="M61 160L62 161L61 160z"/>
<path style="fill:#dc4192; stroke:none;" d="M62 160L63 161L62 160M84 160L85 161L84 160z"/>
<path style="fill:#c5b74d; stroke:none;" d="M85 160L86 161L85 160M108 160L109 161L108 160z"/>
<path style="fill:#dc4192; stroke:none;" d="M109 160L110 161L109 160M132 160L133 161L132 160z"/>
<path style="fill:#c5b74d; stroke:none;" d="M133 160L134 161L133 160M182 160L183 161L182 160z"/>
<path style="fill:#dc4192; stroke:none;" d="M230 160L231 161L230 160z"/>
<path style="fill:#c5b74d; stroke:none;" d="M65.6667 161.333L66.3333 161.667L65.6667 161.333z"/>
<path style="fill:#dc4192; stroke:none;" d="M67 161L67 162L70 162L67 161M76 161L76 162L80 162L76 161z"/>
<path style="fill:#c5b74d; stroke:none;" d="M80.6667 161.333L81.3333 161.667L80.6667 161.333M113 161L114 162L113 161z"/>
<path style="fill:#dc4192; stroke:none;" d="M114.667 161.333L115.333 161.667L114.667 161.333M127 161L128 162L127 161z"/>
<path style="fill:#c5b74d; stroke:none;" d="M128.667 161.333L129.333 161.667L128.667 161.333z"/>
<path style="fill:#dc4192; stroke:none;" d="M184 161L185 162L184 161M228 161L229 162L228 161z"/>
<path style="fill:#c5b74d; stroke:none;" d="M229 161L230 162L229 161M249.333 181.667L249.667 182.333L249.333 181.667M6 182L7 183L6 182z"/>
<path style="fill:#dc4192; stroke:none;" d="M6 183L7 184L6 183z"/>
<path style="fill:#c5b74d; stroke:none;" d="M7 184L8 185L7 184M248 184L249 185L248 184M8 185L9 186L8 185M247 185L248 186L247 185z"/>
<path style="fill:#dc4192; stroke:none;" d="M9 186L10 187L9 186z"/>
<path style="fill:#c5b74d; stroke:none;" d="M245 186L246 187L245 186z"/>
<path style="fill:#dc4192; stroke:none;" d="M246 186L247 187L246 186M12 187L12 188L79 188L58 187L12 187M177 187L177 188L244 188L223 187L177 187z"/>
<path style="fill:#c5b74d; stroke:none;" d="M83 192L83 203L173 203L173 192L83 192z"/>
<path style="fill:#dc4192; stroke:none;" d="M55 207L55 208L79 208L55 207M176 207L176 208L196 208L176 207M52 208L53 209L52 208z"/>
<path style="fill:#c5b74d; stroke:none;" d="M49 224L207 224C207 218.875 208.218 210.355 201.895 208.434C189.416 204.641 171.055 208 158 208L87 208C77.0342 208 63.6214 205.639 54.044 208.434C47.5098 210.34 49 218.725 49 224z"/>
<path style="fill:#dc4192; stroke:none;" d="M205 210L206 211L205 210z"/>
</svg>
