<?xml version="1.0" standalone="yes"?>
<svg xmlns="http://www.w3.org/2000/svg" width="150" height="150">
<path style="fill:#f3efee; stroke:none;" d="M0 0L0 150L150 150L150 0L0 0z"/>
<path style="fill:#d59079; stroke:none;" d="M35 57C26.6234 57.3828 13.2583 60.2354 9 68L10 68C14.2264 63.3242 18.2379 64.8811 24 65L23 67L48 69L46 88L47 88C48.2141 72.6368 51.1155 67.3076 66 63L66 62L44 59C50.3499 46.458 62.5727 43.9918 75 44L75 73L76 73L78.0278 45.2785L95 38.4244L142 23L142 22L138 22L138 21L142 21L142 20L126 21L126 20L132 20C111.012 11.4399 79.4842 25.5824 59 31.4213C53.4772 32.9955 39.6225 34.1057 36.0278 38.7276C33.1132 42.4751 35 52.4194 35 57z"/>
<path style="fill:#c4341d; stroke:none;" d="M109.667 18.3333L110.333 18.6667L109.667 18.3333M112 18L112 19L116 19L112 18M121 19L122 20L121 19z"/>
<path style="fill:#41414e; stroke:none;" d="M122 19L122 20L126 20L122 19z"/>
<path style="fill:#c4341d; stroke:none;" d="M112 20L113 21L112 20M126 20L126 21L137 21L126 20M106.667 21.3333L107.333 21.6667L106.667 21.3333M116 21L117 22L116 21M138.667 21.3333L139.333 21.6667L138.667 21.3333z"/>
<path style="fill:#41414e; stroke:none;" d="M140 21L140 22L142 24L147 21L140 21z"/>
<path style="fill:#c4341d; stroke:none;" d="M109 22L110 23L109 22M112.333 22.6667L112.667 23.3333L112.333 22.6667M118 22L118 23L121 23L118 22M127 22L128 23L127 22M106.667 23.3333L107.333 23.6667L106.667 23.3333M122 23L122 24L125 24L122 23M129 23L130 24L129 23M81 44L78 43C75.3437 52.898 75.5403 80.3176 86 84L85 86L88 87L87 85L88 85C94.9024 86.7393 101.635 82.8254 108 80.4252C120.341 75.7711 133.171 70.0387 146 67L146 23L98 37.2801L81 44z"/>
<path style="fill:#d59079; stroke:none;" d="M146 23L146 67L147 67C147 54.5196 150.81 34.4634 146 23z"/>
<path style="fill:#c4341d; stroke:none;" d="M120.667 25.3333L121.333 25.6667L120.667 25.3333M99 26L99 27L107 27L99 26M112 26L112 27L115 27L112 26M115.667 28.3333L116.333 28.6667L115.667 28.3333M107 29L107 30L111 30L107 29M90 32L91 33L90 32M94.6667 32.3333L95.3333 32.6667L94.6667 32.3333M99 32L100 33L99 32z"/>
<path style="fill:#f3efee; stroke:none;" d="M53 34L54 35L53 34M50 35L51 36L50 35z"/>
<path style="fill:#c4341d; stroke:none;" d="M84 35L85 36L84 35M89 35L92 37L89 35z"/>
<path style="fill:#f3efee; stroke:none;" d="M47.6667 36.3333L48.3333 36.6667L47.6667 36.3333z"/>
<path style="fill:#c4341d; stroke:none;" d="M79 36L80 37L79 36z"/>
<path style="fill:#f3efee; stroke:none;" d="M36 41L53 41L53 40L42 39L42 38L46 38C42.2981 36.6757 38.2566 37.766 36 41z"/>
<path style="fill:#c4341d; stroke:none;" d="M77 37L74 38L74 39L77 37M82 38L82 39L86 39L82 38M75 41L76 42L75 41z"/>
<path style="fill:#f3efee; stroke:none;" d="M36.3333 42.6667L36.6667 43.3333L36.3333 42.6667z"/>
<path style="fill:#c4341d; stroke:none;" d="M44 59L66 62L66 63C60.8235 64.0821 52.9309 65.3452 50 70C54.1733 68.7411 60.6405 64.9819 64.9815 65.4259C68.1671 65.7518 69.3156 71.3289 72.7369 70.2485C77.4981 68.7448 75 48.3401 75 44C63.4372 43.9681 48.1891 45.2533 44 59z"/>
<path style="fill:#41414e; stroke:none;" d="M80 43L81 44L80 43z"/>
<path style="fill:#f3efee; stroke:none;" d="M36 45L38 53L36 45z"/>
<path style="fill:#41414e; stroke:none;" d="M77 47L78 48L77 47M77 50L76 73L75 70C69.7629 70.4527 68.708 64.2975 64.1258 64.912C49.7104 66.8453 42.3022 84.2089 52 96L52 93L59 93L66 90L69 85L69.3966 101.853L61.2276 107.433L56.2878 115.628L41.946 120.017L4 110L4 109L9 109L9 108L4 105L3 105L3 112L22.0147 120.967L34 120.674L52 122L53 128L52 128C51.3369 124.685 48.4604 125.698 48 128L41 128L41 129C60.3479 134.49 71.4005 128.339 89 120L89 119L75 121L75 122L77 122L77 123L73 122L72 111L75 111L73 106L79 103L79 102L75 103C75.3567 92.0451 93.8456 88.1694 103 86L103 87L91 96L91 97L94 102L87 98L90 103L86 105L81 100L81 111L95 106C95.2605 95.2306 101.846 98.1636 110 97L109 99L121 94C124.356 99.7496 133.126 101.872 136.821 94.956C139.046 90.7914 138.276 84.3184 137 80L140 79L140 78L137 77C142.011 75.1901 142.938 73.2154 143 68C126.85 70.7452 111.687 79.9169 96 84.561C89.4321 86.5053 80.1295 86.9095 76 93L75 93L75 83L77 86L78 86L78 83L80 85L84 83C73.5589 76.4179 81.1558 59.9038 77 50z"/>
<path style="fill:#f3efee; stroke:none;" d="M36 54L35 58L35 59L39 59L36 54M30 59L30 60L34 60L30 59M40 59L41 60L40 59M26 60L26 61L29 61L26 60z"/>
<path style="fill:#d59079; stroke:none;" d="M144 61L108 75L108 76L134 67L134 68L127 70L127 71L145 65L145 64L142 64L142 63L145 62L144 61z"/>
<path style="fill:#f3efee; stroke:none;" d="M18 62L19 63L18 62z"/>
<path style="fill:#c4341d; stroke:none;" d="M5 87L6 87L8 85C8.11703 79.9985 9.39623 69.8341 14.2747 67.0671C16.9362 65.5576 21.009 66.756 24 66C9.02927 59.2793 5.91618 75.407 5 87M134 66L134 67L142 65L134 66z"/>
<path style="fill:#41414e; stroke:none;" d="M12 69L46 71L42 92L41 92L38 89L38 90L40 90L40 91L24 87L19 85L13 88L22 79L22 78L9 87L9 88L45 94L48 70C40.1222 69.9348 16.6549 61.8266 12 69z"/>
<path style="fill:#c4341d; stroke:none;" d="M49 66L50 67L49 66z"/>
<path style="fill:#349dce; stroke:none;" d="M13 84L22 78L22 79L13 88L19 85L24 87L40 91L40 90L38 90L38 89L41 92L42 92L46 71L22 68.4205L12.588 69.902L13 84z"/>
<path style="fill:#f3efee; stroke:none;" d="M37 68L37 69L48 70L37 68z"/>
<path style="fill:#d59079; stroke:none;" d="M143.667 67.3333L144.333 67.6667L143.667 67.3333z"/>
<path style="fill:#349dce; stroke:none;" d="M52 84C56.6697 80.9276 61.1091 76.083 66 81C69.9605 70.9083 61.5169 63.8276 53.8935 73.3935C51.5416 76.3447 52.0027 80.4645 52 84M40.6667 69.3333L41.3333 69.6667L40.6667 69.3333z"/>
<path style="fill:#d59079; stroke:none;" d="M42 69L43 70L42 69M8 70L9 71L8 70z"/>
<path style="fill:#41414e; stroke:none;" d="M11 70L12 71L11 70z"/>
<path style="fill:#d59079; stroke:none;" d="M12 70L13 71L12 70M11 71L12 72L11 71M114 75L114 76L126 72L114 75M7.33333 72.6667L7.66667 73.3333L7.33333 72.6667z"/>
<path style="fill:#41414e; stroke:none;" d="M10.3333 72.6667L10.6667 73.3333L10.3333 72.6667z"/>
<path style="fill:#d59079; stroke:none;" d="M12 72L13 73L12 72M14.3333 72.6667L14.6667 73.3333L14.3333 72.6667z"/>
<path style="fill:#c4341d; stroke:none;" d="M49 72L50 73L49 72z"/>
<path style="fill:#d59079; stroke:none;" d="M70.6667 72.3333L71.3333 72.6667L70.6667 72.3333z"/>
<path style="fill:#349dce; stroke:none;" d="M47 73L48 74L47 73z"/>
<path style="fill:#d59079; stroke:none;" d="M10 74L9 80L10 80L11 78L12 78L15 80L10 74M6.33333 75.6667L6.66667 76.3333L6.33333 75.6667M141 75L137 77L140 78L140 79L137 80L138 87C142.628 84.1069 144.541 79.6745 141 75z"/>
<path style="fill:#41414e; stroke:none;" d="M9 76L10 77L9 76z"/>
<path style="fill:#d59079; stroke:none;" d="M105.667 76.3333L106.333 76.6667L105.667 76.3333M111.667 76.3333L112.333 76.6667L111.667 76.3333M114 81L115 83L110 85L110 86L113 88L114 88L113 85C116.857 82.6199 118.817 79.2578 123 83L124 83L133 78C126.286 75.1047 120.066 77.766 114 81z"/>
<path style="fill:#f3efee; stroke:none;" d="M139.667 76.3333L140.333 76.6667L139.667 76.3333M12 77L13 78L12 77z"/>
<path style="fill:#c4341d; stroke:none;" d="M48 77L45 94L5 88C5.96664 92.511 12.1102 91.7655 16 92.6389C27.4525 95.2104 39.5087 98.2135 51 100L51 101C36.8168 102.5 18.7833 97.566 5 94L16 102L11 98L11 97L34 101L34 102L31 102L32 105L49 106L46 110L49 109L49 110L41 113L41 114L52 114C52.1436 117.039 53.0262 117.494 56 118C56 113.154 60.2033 106.599 65 105C66.8202 104.393 68.6786 105.982 70 104C73.1658 99.2513 67.0087 91.7478 70 91L70 90L67 90L67 89L70 89L69 85L65 88L67 91L64 90L65 92L64 92L59 91L61 94L56 93L51 96L48 77z"/>
<path style="fill:#d59079; stroke:none;" d="M66 77L67 78L66 77M89 82L89 83L104 78L89 82M103 79L103 80L110 78L103 79z"/>
<path style="fill:#41414e; stroke:none;" d="M8 78L8 83L9 83L8 78z"/>
<path style="fill:#f3efee; stroke:none;" d="M10 78L8 86L9 87L11 87L15 80L12 78L10 78M126 78L127 79L126 78z"/>
<path style="fill:#d59079; stroke:none;" d="M5 80L5 83L6 83L5 80z"/>
<path style="fill:#f3efee; stroke:none;" d="M22 80L23 81L22 80z"/>
<path style="fill:#d59079; stroke:none;" d="M73.3333 80.6667L73.6667 81.3333L73.3333 80.6667M95 82L95 83L102 81L95 82z"/>
<path style="fill:#f3efee; stroke:none;" d="M113 90L119 91L123 81C116.22 79.5933 114.414 84.0506 113 90M20 81L14 87L22 82L20 81z"/>
<path style="fill:#41414e; stroke:none;" d="M83 81L84 82L83 81M85 82L86 83L85 82z"/>
<path style="fill:#349dce; stroke:none;" d="M112 82L113 83L112 82z"/>
<path style="fill:#d59079; stroke:none;" d="M8 83L9 84L8 83M17 83L18 84L17 83M75 83L75 93L76 93L87 87L87 86L78 88L78 87L80 87L80 86L77 87L75 83z"/>
<path style="fill:#c4341d; stroke:none;" d="M76 83L77 84L76 83M78 83L80 88L84 87L83 84L82 84L83 86L82 86L78 83z"/>
<path style="fill:#d59079; stroke:none;" d="M86.6667 83.3333L87.3333 83.6667L86.6667 83.3333M89 84L89 85L94 84L89 84M111 83L112 84L111 83M6 84L3 105L8 110L13 109L14 111L12 112L12 113L40 118L43 120L43 119L40 118L40 117L47 117L47 116C43.1461 116 40.3272 115.691 41 113L35 114L35 113L37 113L37 112L32 113C31.4623 109.706 26.7217 110.297 24 111C20.4788 106.37 10.5181 106.07 5 105L5 92L10 92L10 91L5 88L18 90L18 89L6 84M12 84L13 85L12 84M83 84L83 85L86 85L83 84z"/>
<path style="fill:#349dce; stroke:none;" d="M106 86L109 85L106 86z"/>
<path style="fill:#d59079; stroke:none;" d="M121 87L124 88L126 84L121 87M129 85L129 86L132 88L128 87C128.064 89.9934 127.946 91.3456 131 92L130 88L134 88L133 84L129 85z"/>
<path style="fill:#41414e; stroke:none;" d="M7.33333 85.6667L7.66667 86.3333L7.33333 85.6667z"/>
<path style="fill:#c4341d; stroke:none;" d="M76 85L77 86L76 85z"/>
<path style="fill:#d59079; stroke:none;" d="M81.6667 85.3333L82.3333 85.6667L81.6667 85.3333z"/>
<path style="fill:#41414e; stroke:none;" d="M84 85L85 86L84 85z"/>
<path style="fill:#d59079; stroke:none;" d="M87.6667 85.3333L88.3333 85.6667L87.6667 85.3333z"/>
<path style="fill:#41414e; stroke:none;" d="M113 85L114 86L113 85z"/>
<path style="fill:#349dce; stroke:none;" d="M125 85L126 86L125 85M138 85L139 86L138 85z"/>
<path style="fill:#d59079; stroke:none;" d="M11 86L12 87L11 86z"/>
<path style="fill:#c4341d; stroke:none;" d="M77 86L78 87L77 86z"/>
<path style="fill:#d59079; stroke:none;" d="M100 86L101 87L100 86z"/>
<path style="fill:#349dce; stroke:none;" d="M101.667 86.3333L102.333 86.6667L101.667 86.3333z"/>
<path style="fill:#f3efee; stroke:none;" d="M129 88L132 87L129 88z"/>
<path style="fill:#349dce; stroke:none;" d="M19 87L20 88L19 87z"/>
<path style="fill:#c4341d; stroke:none;" d="M78 87L79 88L78 87z"/>
<path style="fill:#41414e; stroke:none;" d="M79 87L80 88L79 87z"/>
<path style="fill:#c4341d; stroke:none;" d="M84 87L85 88L84 87z"/>
<path style="fill:#349dce; stroke:none;" d="M97 89L102 89L97 89z"/>
<path style="fill:#d59079; stroke:none;" d="M108.667 87.3333L109.333 87.6667L108.667 87.3333z"/>
<path style="fill:#349dce; stroke:none;" d="M122 87L123 88L122 87M124 87L125 88L124 87z"/>
<path style="fill:#41414e; stroke:none;" d="M131 87L132 88L131 87z"/>
<path style="fill:#349dce; stroke:none;" d="M138.333 87.6667L138.667 88.3333L138.333 87.6667z"/>
<path style="fill:#c4341d; stroke:none;" d="M76 88L77 89L76 88z"/>
<path style="fill:#41414e; stroke:none;" d="M77 88L78 89L77 88z"/>
<path style="fill:#c4341d; stroke:none;" d="M81.6667 88.3333L82.3333 88.6667L81.6667 88.3333z"/>
<path style="fill:#d59079; stroke:none;" d="M79 97L78 97L75 96L75 97L77 98L81 98L78 99L78 100L80 100L80 101L75 101L75 102L75 103L81 100L86 105L90 101L84 100L86 98L92 98L101 88C94.5093 88.8633 81.4796 89.8741 79 97M120 88L121 89L120 88M45.3333 89.6667L45.6667 90.3333L45.3333 89.6667z"/>
<path style="fill:#c4341d; stroke:none;" d="M63 89L64 90L63 89z"/>
<path style="fill:#d59079; stroke:none;" d="M67 89L67 90L70 90L67 89z"/>
<path style="fill:#c4341d; stroke:none;" d="M79 89L80 90L79 89z"/>
<path style="fill:#d59079; stroke:none;" d="M102.667 89.3333L103.333 89.6667L102.667 89.3333M112 89L113 90L112 89M119.333 89.6667L119.667 90.3333L119.333 89.6667z"/>
<path style="fill:#f3efee; stroke:none;" d="M131 89L132 90L131 89z"/>
<path style="fill:#d59079; stroke:none;" d="M138.333 89.6667L138.667 90.3333L138.333 89.6667M18.6667 90.3333L19.3333 90.6667L18.6667 90.3333z"/>
<path style="fill:#f3efee; stroke:none;" d="M20.6667 90.3333L21.3333 90.6667L20.6667 90.3333z"/>
<path style="fill:#d59079; stroke:none;" d="M22 90L29 92L29 91L22 90M60 90L61 91L60 90M65.6667 90.3333L66.3333 90.6667L65.6667 90.3333M115 90L116 91L115 90M58 91L59 92L58 91M63.6667 91.3333L64.3333 91.6667L63.6667 91.3333M68.6667 91.3333L69.3333 91.6667L68.6667 91.3333z"/>
<path style="fill:#c4341d; stroke:none;" d="M76 91L77 92L76 91z"/>
<path style="fill:#f3efee; stroke:none;" d="M5 92L5 94L47 102C45.7383 97.6868 40.9987 97.5877 37 96.9259C26.511 95.1899 15.642 92.13 5 92z"/>
<path style="fill:#d59079; stroke:none;" d="M11 92L11 93L16 93L11 92M30 92L30 93L33 93L30 92M55.6667 92.3333L56.3333 92.6667L55.6667 92.3333z"/>
<path style="fill:#c4341d; stroke:none;" d="M57.3333 92.6667L57.6667 93.3333L57.3333 92.6667z"/>
<path style="fill:#d59079; stroke:none;" d="M61 92L61 93L63 94L52 98L52 97L56 96L56 95L48 98L48 99L52 98L51 100L52 100L68 93L68 92L61 92z"/>
<path style="fill:#349dce; stroke:none;" d="M128 92L129 93L128 92z"/>
<path style="fill:#d59079; stroke:none;" d="M17 93L17 94L20 94L17 93M36.6667 93.3333L37.3333 93.6667L36.6667 93.3333M52.6667 93.3333L53.3333 93.6667L52.6667 93.3333z"/>
<path style="fill:#41414e; stroke:none;" d="M56 93L57 94L56 93z"/>
<path style="fill:#d59079; stroke:none;" d="M56 94L56 95L61 94L56 94M6 94L6 95L11 95L6 94M22 94L22 95L26 95L22 94M120 94L121 95L120 94M137 94L138 95L137 94M11 95L11 96L15 96L11 95M28 95L28 96L31 96L28 95z"/>
<path style="fill:#f3efee; stroke:none;" d="M78.3333 95.6667L78.6667 96.3333L78.3333 95.6667M80.3333 95.6667L80.6667 96.3333L80.3333 95.6667z"/>
<path style="fill:#349dce; stroke:none;" d="M92 95L93 96L92 95z"/>
<path style="fill:#d59079; stroke:none;" d="M118 95L119 96L118 95M121 95L122 96L121 95M18 96L18 97L21 97L18 96M34.6667 96.3333L35.3333 96.6667L34.6667 96.3333z"/>
<path style="fill:#c4341d; stroke:none;" d="M54.3333 96.6667L54.6667 97.3333L54.3333 96.6667z"/>
<path style="fill:#41414e; stroke:none;" d="M55 96L56 97L55 96z"/>
<path style="fill:#f3efee; stroke:none;" d="M76 96L76 102L80 101L80 100L78 100L78 99L81 98L76 96z"/>
<path style="fill:#d59079; stroke:none;" d="M116 96L117 97L116 96M11 97L11 98L22 99L11 97M23.6667 97.3333L24.3333 97.6667L23.6667 97.3333M40.6667 97.3333L41.3333 97.6667L40.6667 97.3333z"/>
<path style="fill:#c4341d; stroke:none;" d="M52 97L53 98L52 97z"/>
<path style="fill:#41414e; stroke:none;" d="M53 97L54 98L53 97z"/>
<path style="fill:#f3efee; stroke:none;" d="M90 98L90 100L93 101L94 100L93 97L90 98z"/>
<path style="fill:#d59079; stroke:none;" d="M95 102L101 102L101 103L95 108L81 111L84 105L73 110L73 122L77 123L77 122L75 122L75 121C92.2188 120.204 114.518 113.169 128 102L100 105L100 104L106 100L111 100L111 99L110 97C104.251 97.2729 96.5415 94.9361 95 102M114 97L115 98L114 97M135 97L134 99L136 99L135 97z"/>
<path style="fill:#41414e; stroke:none;" d="M6 98L7 103L9 102L16 103C18.104 109.932 38.4123 113.05 45 112L44 106L43 106L44 109L40 108L41 104L32 105C30.0006 101.077 17.2474 96.2086 16 102L12 101L6 98z"/>
<path style="fill:#d59079; stroke:none;" d="M28 98L28 99L31 99L28 98M44 98L44 99L47 99L44 98z"/>
<path style="fill:#349dce; stroke:none;" d="M86 98L87 99L86 98z"/>
<path style="fill:#d59079; stroke:none;" d="M93 98L94 99L93 98M124 98L125 99L124 98M7 99L8 100L7 99M11.3333 99.6667L11.6667 100.333L11.3333 99.6667z"/>
<path style="fill:#f3efee; stroke:none;" d="M21 99L21 100L24 100L21 99z"/>
<path style="fill:#d59079; stroke:none;" d="M24 101L27 100L24 101M33 99L33 100L36 100L33 99M47 99L47 102L48 102L51 101L51 100L47 99z"/>
<path style="fill:#f3efee; stroke:none;" d="M84 100L88 103L89 102L88 99L84 100z"/>
<path style="fill:#d59079; stroke:none;" d="M127 99L127 100L131 101L131 100L127 99M132.667 99.3333L133.333 99.6667L132.667 99.3333z"/>
<path style="fill:#f3efee; stroke:none;" d="M25 100L25 101L29 101L25 100z"/>
<path style="fill:#d59079; stroke:none;" d="M29 100L34 102L34 101L29 100M39.6667 100.333L40.3333 100.667L39.6667 100.333M91 100L91 101L91 102L94 101L94 100L91 100z"/>
<path style="fill:#41414e; stroke:none;" d="M106 100L107 101L106 100z"/>
<path style="fill:#d59079; stroke:none;" d="M44.6667 101.333L45.3333 101.667L44.6667 101.333z"/>
<path style="fill:#349dce; stroke:none;" d="M93 101L94 102L93 101z"/>
<path style="fill:#f3efee; stroke:none;" d="M95 102L95 105L101 103L95 102z"/>
<path style="fill:#c4341d; stroke:none;" d="M5 103L18 108L16 103L5 103z"/>
<path style="fill:#d59079; stroke:none;" d="M8 102L9 103L8 102z"/>
<path style="fill:#349dce; stroke:none;" d="M12 102L13 103L12 102z"/>
<path style="fill:#f3efee; stroke:none;" d="M75 111L84 105L83 102C73.6316 102 75.7358 108.057 75 111z"/>
<path style="fill:#d59079; stroke:none;" d="M77 103L78 104L77 103M83 103L84 104L83 103z"/>
<path style="fill:#349dce; stroke:none;" d="M85 103L86 104L85 103z"/>
<path style="fill:#d59079; stroke:none;" d="M95 103L96 104L95 103M36 105L37 106L36 105M74 105L75 106L74 105z"/>
<path style="fill:#f3efee; stroke:none;" d="M97 107L100 105L97 107z"/>
<path style="fill:#d59079; stroke:none;" d="M40 106L40 107L44 109L40 106M45 106L45 112L49 110L49 109L46 110L49 106L45 106M73.3333 106.667L73.6667 107.333L73.3333 106.667M92 106L93 107L92 106z"/>
<path style="fill:#f3efee; stroke:none;" d="M91 107L91 108L95 108L91 107M101.667 106.333L102.333 106.667L101.667 106.333z"/>
<path style="fill:#349dce; stroke:none;" d="M40.6667 107.333L41.3333 107.667L40.6667 107.333z"/>
<path style="fill:#c4341d; stroke:none;" d="M21 108L21 109L24 109L21 108z"/>
<path style="fill:#349dce; stroke:none;" d="M34 108L35 109L34 108M4 109L4 110L14 112L13 109L4 109z"/>
<path style="fill:#c4341d; stroke:none;" d="M24 109L24 110L27 110L24 109M28 110L28 111L39 113C36.4589 109.4 32.1073 109.544 28 110z"/>
<path style="fill:#d59079; stroke:none;" d="M38 109L39 110L38 109M42 109L43 110L42 109M74.6667 109.333L75.3333 109.667L74.6667 109.333z"/>
<path style="fill:#f3efee; stroke:none;" d="M24 110L25 111L24 110z"/>
<path style="fill:#349dce; stroke:none;" d="M42 110L43 111L42 110z"/>
<path style="fill:#d59079; stroke:none;" d="M5 112L6 113L5 112z"/>
<path style="fill:#349dce; stroke:none;" d="M23 112L24 113L23 112z"/>
<path style="fill:#f3efee; stroke:none;" d="M32 112L32 113L35 113L32 112z"/>
<path style="fill:#d59079; stroke:none;" d="M57 112L56 117L57 117L57 112z"/>
<path style="fill:#349dce; stroke:none;" d="M64 112L62 115L64 112z"/>
<path style="fill:#d59079; stroke:none;" d="M64 122C63.5952 119.436 63.46 114.522 67 117L67 112C63.1259 113.422 57.3175 120.568 64 122M8.66667 113.333L9.33333 113.667L8.66667 113.333z"/>
<path style="fill:#349dce; stroke:none;" d="M14 113L15 114L14 113z"/>
<path style="fill:#f3efee; stroke:none;" d="M35 113L35 114L39 114L35 113z"/>
<path style="fill:#d59079; stroke:none;" d="M12.6667 114.333L13.3333 114.667L12.6667 114.333z"/>
<path style="fill:#349dce; stroke:none;" d="M18 114L19 115L18 114z"/>
<path style="fill:#f3efee; stroke:none;" d="M40 114L40 115L50 116L50 115L40 114z"/>
<path style="fill:#d59079; stroke:none;" d="M43.6667 114.333L44.3333 114.667L43.6667 114.333M49 114L50 116L51 116L52 114L49 114z"/>
<path style="fill:#349dce; stroke:none;" d="M22 115L23 116L22 115M32 115L33 116L32 115z"/>
<path style="fill:#d59079; stroke:none;" d="M16 116L17 117L16 116z"/>
<path style="fill:#349dce; stroke:none;" d="M26 116L27 117L26 116M30 117L31 118L30 117M40 117L40 118L42 121L46 117L40 117z"/>
<path style="fill:#d59079; stroke:none;" d="M65 117L64 119L65 117M17 118L18 119L17 118z"/>
<path style="fill:#349dce; stroke:none;" d="M34 118L35 119L34 118M38 118L38 120L40 120L40 118L38 118z"/>
<path style="fill:#f3efee; stroke:none;" d="M65 118L66 119L65 118z"/>
<path style="fill:#d59079; stroke:none;" d="M14 120C18.4495 126.501 35.4512 128.889 43 130L43 129L41 129L41 128L48 128L44 123L14 120M11.6667 120.333L12.3333 120.667L11.6667 120.333z"/>
<path style="fill:#f3efee; stroke:none;" d="M18 120L19 121L18 120z"/>
<path style="fill:#d59079; stroke:none;" d="M88 120L89 121L88 120z"/>
<path style="fill:#f3efee; stroke:none;" d="M16 121L17 122L16 121z"/>
<path style="fill:#349dce; stroke:none;" d="M38 121L39 122L38 121z"/>
<path style="fill:#d59079; stroke:none;" d="M79 121L80 122L79 121M82 121L83 122L82 121M85.6667 121.333L86.3333 121.667L85.6667 121.333z"/>
<path style="fill:#349dce; stroke:none;" d="M50 122L42 125C45.3283 125.947 49.6905 126.388 50 122z"/>
<path style="fill:#d59079; stroke:none;" d="M51 122L49 127L52 128L53 128L51 122M83 122L84 123L83 122M81.6667 123.333L82.3333 123.667L81.6667 123.333M48 124L49 125L48 124M79 124L80 125L79 124M77 125L78 126L77 125z"/>
<path style="fill:#41414e; stroke:none;" d="M42 126L43 127L42 126z"/>
<path style="fill:#d59079; stroke:none;" d="M75 126L76 127L75 126M72.6667 127.333L73.3333 127.667L72.6667 127.333M70 128L71 129L70 128M68 129L69 130L68 129M45.6667 130.333L46.3333 130.667L45.6667 130.333M66 130L67 131L66 130M49 131L50 132L49 131M64 131L65 132L64 131M52 132L52 133L55 133L52 132M59 132L59 133L62 133L59 132z"/>
</svg>
